<?xml version="1.0" encoding="UTF-8" standalone="no"?>
<!DOCTYPE svg PUBLIC "-//W3C//DTD SVG 1.1//EN"
 "http://www.w3.org/Graphics/SVG/1.1/DTD/svg11.dtd">
<!-- Generated by graphviz version 2.40.1 (20161225.0304)
 -->
<!-- Title: aliases Pages: 1 -->
<svg width="768pt" height="362pt"
 viewBox="72.00 72.00 696.00 290.00" xmlns="http://www.w3.org/2000/svg" xmlns:xlink="http://www.w3.org/1999/xlink">
<g id="graph0" class="graph" transform="scale(1 1) rotate(0) translate(76 286)">
<title>aliases</title>
<polygon fill="#ffffff" stroke="transparent" points="-4,4 -4,-214 620,-214 620,4 -4,4"/>
<text text-anchor="start" x="8" y="-18" font-family="Courier,monospace" font-size="10.00" fill="#696969">Uses diagram</text>
<text text-anchor="start" x="8" y="-7" font-family="Courier,monospace" font-size="10.00" fill="#696969">Generated on 2019/10/26, 09:23</text>
<g id="clust1" class="cluster">
<title>cluster_directory_aliases</title>
<path fill="#f5f5f5" stroke="#696969" d="M20,-38C20,-38 596,-38 596,-38 602,-38 608,-44 608,-50 608,-50 608,-190 608,-190 608,-196 602,-202 596,-202 596,-202 20,-202 20,-202 14,-202 8,-196 8,-190 8,-190 8,-50 8,-50 8,-44 14,-38 20,-38"/>
<text text-anchor="start" x="20.5" y="-185.5" font-family="Courier,monospace" font-size="10.00" fill="#696969">./</text>
</g>
<g id="clust3" class="cluster">
<title>cluster_file_/home/runner/work/demo/demo/aliases.lgt</title>
<g id="a_clust3"><a xlink:title="aliases.lgt">
<path fill="#fffafa" stroke="#696969" d="M30,-48C30,-48 586,-48 586,-48 592,-48 598,-54 598,-60 598,-60 598,-153 598,-153 598,-159 592,-165 586,-165 586,-165 30,-165 30,-165 24,-165 18,-159 18,-153 18,-153 18,-60 18,-60 18,-54 24,-48 30,-48"/>
<text text-anchor="start" x="30.5" y="-148.5" font-family="Courier,monospace" font-size="10.00" fill="#696969">aliases.lgt</text>
</a>
</g>
</g>
<!-- rectangle(_,_) -->
<g id="node1" class="node">
<title>rectangle(_,_)</title>
<g id="a_node1"><a xlink:title="prototype">
<polygon fill="#fff8dc" stroke="#000000" points="587.5,-128 464.5,-128 464.5,-58 587.5,-58 587.5,-128"/>
<text text-anchor="start" x="473" y="-115.8" font-family="Courier,monospace" font-size="9.00" fill="#000000"> </text>
<text text-anchor="start" x="479" y="-115.2" font-family="Courier,monospace" font-size="11.00" fill="#000000">rectangle(_,_)</text>
<text text-anchor="start" x="574" y="-115.8" font-family="Courier,monospace" font-size="9.00" fill="#000000"> </text>
<text text-anchor="start" x="473" y="-104.8" font-family="Courier,monospace" font-size="9.00" fill="#000000"> </text>
<text text-anchor="start" x="506" y="-105.4" font-family="Courier,monospace" font-size="7.00" fill="#000000">prototype</text>
<text text-anchor="start" x="574" y="-104.8" font-family="Courier,monospace" font-size="9.00" fill="#000000"> </text>
<text text-anchor="start" x="473" y="-94.8" font-family="Courier,monospace" font-size="9.00" fill="#000000"> </text>
<text text-anchor="start" x="473" y="-84.8" font-family="Courier,monospace" font-size="9.00" fill="#000000"> </text>
<text text-anchor="start" x="508" y="-84.8" font-family="Courier,monospace" font-size="9.00" fill="#000000">width/1</text>
<text text-anchor="start" x="574" y="-84.8" font-family="Courier,monospace" font-size="9.00" fill="#000000"> </text>
<text text-anchor="start" x="473" y="-74.8" font-family="Courier,monospace" font-size="9.00" fill="#000000"> </text>
<text text-anchor="start" x="505" y="-74.8" font-family="Courier,monospace" font-size="9.00" fill="#000000">height/1</text>
<text text-anchor="start" x="574" y="-74.8" font-family="Courier,monospace" font-size="9.00" fill="#000000"> </text>
<text text-anchor="start" x="473" y="-64.8" font-family="Courier,monospace" font-size="9.00" fill="#000000"> </text>
<text text-anchor="start" x="510.5" y="-64.8" font-family="Courier,monospace" font-size="9.00" fill="#000000">area/1</text>
<text text-anchor="start" x="574" y="-64.8" font-family="Courier,monospace" font-size="9.00" fill="#000000"> </text>
</a>
</g>
</g>
<!-- square(_) -->
<g id="node2" class="node">
<title>square(_)</title>
<g id="a_node2"><a xlink:title="prototype">
<polygon fill="#fff8dc" stroke="#000000" points="446.5,-111 357.5,-111 357.5,-75 446.5,-75 446.5,-111"/>
<text text-anchor="start" x="366" y="-95.8" font-family="Courier,monospace" font-size="9.00" fill="#000000"> </text>
<text text-anchor="start" x="372" y="-95.2" font-family="Courier,monospace" font-size="11.00" fill="#000000">square(_)</text>
<text text-anchor="start" x="433" y="-95.8" font-family="Courier,monospace" font-size="9.00" fill="#000000"> </text>
<text text-anchor="start" x="366" y="-84.8" font-family="Courier,monospace" font-size="9.00" fill="#000000"> </text>
<text text-anchor="start" x="382" y="-85.4" font-family="Courier,monospace" font-size="7.00" fill="#000000">prototype</text>
<text text-anchor="start" x="433" y="-84.8" font-family="Courier,monospace" font-size="9.00" fill="#000000"> </text>
</a>
</g>
</g>
<!-- square1 -->
<g id="node3" class="node">
<title>square1</title>
<g id="a_node3"><a xlink:title="prototype">
<polygon fill="#fff8dc" stroke="#000000" points="339,-111 263,-111 263,-75 339,-75 339,-111"/>
<text text-anchor="start" x="271" y="-95.8" font-family="Courier,monospace" font-size="9.00" fill="#000000"> </text>
<text text-anchor="start" x="277" y="-95.2" font-family="Courier,monospace" font-size="11.00" fill="#000000">square1</text>
<text text-anchor="start" x="325" y="-95.8" font-family="Courier,monospace" font-size="9.00" fill="#000000"> </text>
<text text-anchor="start" x="271" y="-84.8" font-family="Courier,monospace" font-size="9.00" fill="#000000"> </text>
<text text-anchor="start" x="280.5" y="-85.4" font-family="Courier,monospace" font-size="7.00" fill="#000000">prototype</text>
<text text-anchor="start" x="325" y="-84.8" font-family="Courier,monospace" font-size="9.00" fill="#000000"> </text>
</a>
</g>
</g>
<!-- ellipse(_,_) -->
<g id="node4" class="node">
<title>ellipse(_,_)</title>
<g id="a_node4"><a xlink:title="prototype">
<polygon fill="#fff8dc" stroke="#000000" points="245,-128 135,-128 135,-58 245,-58 245,-128"/>
<text text-anchor="start" x="143" y="-115.8" font-family="Courier,monospace" font-size="9.00" fill="#000000"> </text>
<text text-anchor="start" x="149" y="-115.2" font-family="Courier,monospace" font-size="11.00" fill="#000000">ellipse(_,_)</text>
<text text-anchor="start" x="231" y="-115.8" font-family="Courier,monospace" font-size="9.00" fill="#000000"> </text>
<text text-anchor="start" x="143" y="-104.8" font-family="Courier,monospace" font-size="9.00" fill="#000000"> </text>
<text text-anchor="start" x="169.5" y="-105.4" font-family="Courier,monospace" font-size="7.00" fill="#000000">prototype</text>
<text text-anchor="start" x="231" y="-104.8" font-family="Courier,monospace" font-size="9.00" fill="#000000"> </text>
<text text-anchor="start" x="143" y="-94.8" font-family="Courier,monospace" font-size="9.00" fill="#000000"> </text>
<text text-anchor="start" x="143" y="-84.8" font-family="Courier,monospace" font-size="9.00" fill="#000000"> </text>
<text text-anchor="start" x="179" y="-84.8" font-family="Courier,monospace" font-size="9.00" fill="#000000">rx/1</text>
<text text-anchor="start" x="231" y="-84.8" font-family="Courier,monospace" font-size="9.00" fill="#000000"> </text>
<text text-anchor="start" x="143" y="-74.8" font-family="Courier,monospace" font-size="9.00" fill="#000000"> </text>
<text text-anchor="start" x="179" y="-74.8" font-family="Courier,monospace" font-size="9.00" fill="#000000">ry/1</text>
<text text-anchor="start" x="231" y="-74.8" font-family="Courier,monospace" font-size="9.00" fill="#000000"> </text>
<text text-anchor="start" x="143" y="-64.8" font-family="Courier,monospace" font-size="9.00" fill="#000000"> </text>
<text text-anchor="start" x="174" y="-64.8" font-family="Courier,monospace" font-size="9.00" fill="#000000">area/1</text>
<text text-anchor="start" x="231" y="-64.8" font-family="Courier,monospace" font-size="9.00" fill="#000000"> </text>
</a>
</g>
</g>
<!-- circle(_) -->
<g id="node5" class="node">
<title>circle(_)</title>
<g id="a_node5"><a xlink:title="prototype">
<polygon fill="#fff8dc" stroke="#000000" points="116.5,-111 27.5,-111 27.5,-75 116.5,-75 116.5,-111"/>
<text text-anchor="start" x="36" y="-95.8" font-family="Courier,monospace" font-size="9.00" fill="#000000"> </text>
<text text-anchor="start" x="42" y="-95.2" font-family="Courier,monospace" font-size="11.00" fill="#000000">circle(_)</text>
<text text-anchor="start" x="103" y="-95.8" font-family="Courier,monospace" font-size="9.00" fill="#000000"> </text>
<text text-anchor="start" x="36" y="-84.8" font-family="Courier,monospace" font-size="9.00" fill="#000000"> </text>
<text text-anchor="start" x="52" y="-85.4" font-family="Courier,monospace" font-size="7.00" fill="#000000">prototype</text>
<text text-anchor="start" x="103" y="-84.8" font-family="Courier,monospace" font-size="9.00" fill="#000000"> </text>
</a>
</g>
</g>
</g>
</svg>
