<?xml version="1.0" encoding="UTF-8" standalone="no"?>
<!DOCTYPE svg PUBLIC "-//W3C//DTD SVG 1.1//EN"
 "http://www.w3.org/Graphics/SVG/1.1/DTD/svg11.dtd">
<!-- Generated by graphviz version 2.40.1 (20161225.0304)
 -->
<!-- Title: aliases Pages: 1 -->
<svg width="421pt" height="281pt"
 viewBox="72.00 72.00 349.00 209.00" xmlns="http://www.w3.org/2000/svg" xmlns:xlink="http://www.w3.org/1999/xlink">
<g id="graph0" class="graph" transform="scale(1 1) rotate(0) translate(76 205)">
<title>aliases</title>
<polygon fill="#ffffff" stroke="transparent" points="-4,4 -4,-133 273,-133 273,4 -4,4"/>
<text text-anchor="start" x="8" y="-18" font-family="Courier,monospace" font-size="10.00" fill="#696969">Directory load diagram for directory demo/</text>
<text text-anchor="start" x="8" y="-7" font-family="Courier,monospace" font-size="10.00" fill="#696969">Generated on 2019/10/25, 21:53</text>
<g id="clust1" class="cluster">
<title>cluster_directory_aliases</title>
<g id="a_clust1"><a xlink:title="demo/">
<path fill="#f5f5f5" stroke="#696969" d="M101.5,-38C101.5,-38 167.5,-38 167.5,-38 173.5,-38 179.5,-44 179.5,-50 179.5,-50 179.5,-109 179.5,-109 179.5,-115 173.5,-121 167.5,-121 167.5,-121 101.5,-121 101.5,-121 95.5,-121 89.5,-115 89.5,-109 89.5,-109 89.5,-50 89.5,-50 89.5,-44 95.5,-38 101.5,-38"/>
<text text-anchor="start" x="102" y="-104.5" font-family="Courier,monospace" font-size="10.00" fill="#696969">demo/</text>
</a>
</g>
</g>
<!-- /home/runner/work/demo/demo/ -->
<g id="node1" class="node">
<title>/home/runner/work/demo/demo/</title>
<g id="a_node1"><a xlink:title="demo/">
<polygon fill="#ffa07a" stroke="#000000" points="169,-84 112,-84 112,-88 100,-88 100,-48 169,-48 169,-84"/>
<polyline fill="none" stroke="#000000" points="100,-84 112,-84 "/>
<text text-anchor="start" x="108.5" y="-68.8" font-family="Courier,monospace" font-size="9.00" fill="#000000"> </text>
<text text-anchor="start" x="118" y="-68.2" font-family="Courier,monospace" font-size="11.00" fill="#000000">demo/</text>
<text text-anchor="start" x="155.5" y="-68.8" font-family="Courier,monospace" font-size="9.00" fill="#000000"> </text>
<text text-anchor="start" x="108.5" y="-57.8" font-family="Courier,monospace" font-size="9.00" fill="#000000"> </text>
<text text-anchor="start" x="114.5" y="-58.4" font-family="Courier,monospace" font-size="7.00" fill="#000000">directory</text>
<text text-anchor="start" x="155.5" y="-57.8" font-family="Courier,monospace" font-size="9.00" fill="#000000"> </text>
</a>
</g>
</g>
</g>
</svg>
