<?xml version="1.0" encoding="UTF-8" standalone="no"?>
<!DOCTYPE svg PUBLIC "-//W3C//DTD SVG 1.1//EN"
 "http://www.w3.org/Graphics/SVG/1.1/DTD/svg11.dtd">
<!-- Generated by graphviz version 2.40.1 (20161225.0304)
 -->
<!-- Title: aliases Pages: 1 -->
<svg width="349pt" height="473pt"
 viewBox="72.00 72.00 277.00 401.00" xmlns="http://www.w3.org/2000/svg" xmlns:xlink="http://www.w3.org/1999/xlink">
<g id="graph0" class="graph" transform="scale(1 1) rotate(0) translate(76 397)">
<title>aliases</title>
<polygon fill="#ffffff" stroke="transparent" points="-4,4 -4,-325 201,-325 201,4 -4,4"/>
<text text-anchor="start" x="8" y="-18" font-family="Courier,monospace" font-size="10.00" fill="#696969">File load diagram</text>
<text text-anchor="start" x="8" y="-7" font-family="Courier,monospace" font-size="10.00" fill="#696969">Generated on 2019/11/18, 17:29</text>
<g id="clust1" class="cluster">
<title>cluster_directory_aliases</title>
<path fill="#f5f5f5" stroke="#696969" d="M48.5,-38C48.5,-38 148.5,-38 148.5,-38 154.5,-38 160.5,-44 160.5,-50 160.5,-50 160.5,-301 160.5,-301 160.5,-307 154.5,-313 148.5,-313 148.5,-313 48.5,-313 48.5,-313 42.5,-313 36.5,-307 36.5,-301 36.5,-301 36.5,-50 36.5,-50 36.5,-44 42.5,-38 48.5,-38"/>
<text text-anchor="start" x="49" y="-296.5" font-family="Courier,monospace" font-size="10.00" fill="#696969">./</text>
</g>
<!-- /home/runner/work/demo/demo/loader.lgt -->
<g id="node1" class="node">
<title>/home/runner/work/demo/demo/loader.lgt</title>
<g id="a_node1"><a xlink:title="loader.lgt">
<polygon fill="#afeeee" stroke="#000000" points="146.5,-276 50.5,-276 50.5,-240 146.5,-240 146.5,-276"/>
<text text-anchor="start" x="58.5" y="-260.8" font-family="Courier,monospace" font-size="9.00" fill="#000000"> </text>
<text text-anchor="start" x="64.5" y="-260.2" font-family="Courier,monospace" font-size="11.00" fill="#000000">loader.lgt</text>
<text text-anchor="start" x="132.5" y="-260.8" font-family="Courier,monospace" font-size="9.00" fill="#000000"> </text>
<text text-anchor="start" x="58.5" y="-249.8" font-family="Courier,monospace" font-size="9.00" fill="#000000"> </text>
<text text-anchor="start" x="89" y="-250.4" font-family="Courier,monospace" font-size="7.00" fill="#000000">file</text>
<text text-anchor="start" x="132.5" y="-249.8" font-family="Courier,monospace" font-size="9.00" fill="#000000"> </text>
</a>
</g>
</g>
<!-- /home/runner/work/demo/demo/aliases.lgt -->
<g id="node2" class="node">
<title>/home/runner/work/demo/demo/aliases.lgt</title>
<g id="a_node2"><a xlink:title="aliases.lgt">
<polygon fill="#afeeee" stroke="#000000" points="150,-84 47,-84 47,-48 150,-48 150,-84"/>
<text text-anchor="start" x="55.5" y="-68.8" font-family="Courier,monospace" font-size="9.00" fill="#000000"> </text>
<text text-anchor="start" x="61.5" y="-68.2" font-family="Courier,monospace" font-size="11.00" fill="#000000">aliases.lgt</text>
<text text-anchor="start" x="136.5" y="-68.8" font-family="Courier,monospace" font-size="9.00" fill="#000000"> </text>
<text text-anchor="start" x="55.5" y="-57.8" font-family="Courier,monospace" font-size="9.00" fill="#000000"> </text>
<text text-anchor="start" x="89.5" y="-58.4" font-family="Courier,monospace" font-size="7.00" fill="#000000">file</text>
<text text-anchor="start" x="136.5" y="-57.8" font-family="Courier,monospace" font-size="9.00" fill="#000000"> </text>
</a>
</g>
</g>
<!-- /home/runner/work/demo/demo/loader.lgt&#45;&gt;/home/runner/work/demo/demo/aliases.lgt -->
<g id="edge1" class="edge">
<title>/home/runner/work/demo/demo/loader.lgt&#45;&gt;/home/runner/work/demo/demo/aliases.lgt</title>
<path fill="none" stroke="#000000" d="M98.5,-239.9371C98.5,-206.4168 98.5,-134.3617 98.5,-94.3098"/>
<polygon fill="#000000" stroke="#000000" points="102.0001,-94.1547 98.5,-84.1548 95.0001,-94.1548 102.0001,-94.1547"/>
<g id="a_edge1&#45;label"><a xlink:title="loads">
<text text-anchor="middle" x="112" y="-159.8" font-family="Courier,monospace" font-size="9.00" fill="#000000">loads</text>
</a>
</g>
</g>
</g>
</svg>
