<?xml version="1.0" encoding="UTF-8" standalone="no"?>
<!DOCTYPE svg PUBLIC "-//W3C//DTD SVG 1.1//EN"
 "http://www.w3.org/Graphics/SVG/1.1/DTD/svg11.dtd">
<!-- Generated by graphviz version 2.40.1 (20161225.0304)
 -->
<!-- Title: aliases Pages: 1 -->
<svg width="427pt" height="281pt"
 viewBox="72.00 72.00 355.00 209.00" xmlns="http://www.w3.org/2000/svg" xmlns:xlink="http://www.w3.org/1999/xlink">
<g id="graph0" class="graph" transform="scale(1 1) rotate(0) translate(76 205)">
<title>aliases</title>
<polygon fill="#ffffff" stroke="transparent" points="-4,4 -4,-133 279,-133 279,4 -4,4"/>
<text text-anchor="start" x="8" y="-18" font-family="Courier,monospace" font-size="10.00" fill="#696969">File dependency diagram for directory demo/</text>
<text text-anchor="start" x="8" y="-7" font-family="Courier,monospace" font-size="10.00" fill="#696969">Generated on 2019/10/25, 21:53</text>
<g id="clust1" class="cluster">
<title>cluster_directory_aliases</title>
<g id="a_clust1"><a xlink:title="demo/">
<path fill="#f5f5f5" stroke="#696969" d="M30.5,-38C30.5,-38 244.5,-38 244.5,-38 250.5,-38 256.5,-44 256.5,-50 256.5,-50 256.5,-109 256.5,-109 256.5,-115 250.5,-121 244.5,-121 244.5,-121 30.5,-121 30.5,-121 24.5,-121 18.5,-115 18.5,-109 18.5,-109 18.5,-50 18.5,-50 18.5,-44 24.5,-38 30.5,-38"/>
<text text-anchor="start" x="31" y="-104.5" font-family="Courier,monospace" font-size="10.00" fill="#696969">demo/</text>
</a>
</g>
</g>
<!-- /home/runner/work/demo/demo/loader.lgt -->
<g id="node1" class="node">
<title>/home/runner/work/demo/demo/loader.lgt</title>
<g id="a_node1"><a xlink:title="demo/loader.lgt">
<polygon fill="#afeeee" stroke="#000000" points="246.5,-84 150.5,-84 150.5,-48 246.5,-48 246.5,-84"/>
<text text-anchor="start" x="158.5" y="-68.8" font-family="Courier,monospace" font-size="9.00" fill="#000000"> </text>
<text text-anchor="start" x="164.5" y="-68.2" font-family="Courier,monospace" font-size="11.00" fill="#000000">loader.lgt</text>
<text text-anchor="start" x="232.5" y="-68.8" font-family="Courier,monospace" font-size="9.00" fill="#000000"> </text>
<text text-anchor="start" x="158.5" y="-57.8" font-family="Courier,monospace" font-size="9.00" fill="#000000"> </text>
<text text-anchor="start" x="189" y="-58.4" font-family="Courier,monospace" font-size="7.00" fill="#000000">file</text>
<text text-anchor="start" x="232.5" y="-57.8" font-family="Courier,monospace" font-size="9.00" fill="#000000"> </text>
</a>
</g>
</g>
<!-- /home/runner/work/demo/demo/aliases.lgt -->
<g id="node2" class="node">
<title>/home/runner/work/demo/demo/aliases.lgt</title>
<g id="a_node2"><a xlink:title="demo/aliases.lgt">
<polygon fill="#afeeee" stroke="#000000" points="132,-84 29,-84 29,-48 132,-48 132,-84"/>
<text text-anchor="start" x="37.5" y="-68.8" font-family="Courier,monospace" font-size="9.00" fill="#000000"> </text>
<text text-anchor="start" x="43.5" y="-68.2" font-family="Courier,monospace" font-size="11.00" fill="#000000">aliases.lgt</text>
<text text-anchor="start" x="118.5" y="-68.8" font-family="Courier,monospace" font-size="9.00" fill="#000000"> </text>
<text text-anchor="start" x="37.5" y="-57.8" font-family="Courier,monospace" font-size="9.00" fill="#000000"> </text>
<text text-anchor="start" x="71.5" y="-58.4" font-family="Courier,monospace" font-size="7.00" fill="#000000">file</text>
<text text-anchor="start" x="118.5" y="-57.8" font-family="Courier,monospace" font-size="9.00" fill="#000000"> </text>
</a>
</g>
</g>
</g>
</svg>
