<?xml version="1.0" encoding="UTF-8" standalone="no"?>
<!DOCTYPE svg PUBLIC "-//W3C//DTD SVG 1.1//EN"
 "http://www.w3.org/Graphics/SVG/1.1/DTD/svg11.dtd">
<!-- Generated by graphviz version 2.40.1 (20161225.0304)
 -->
<!-- Title: aliases Pages: 1 -->
<svg width="391pt" height="473pt"
 viewBox="72.00 72.00 319.00 401.00" xmlns="http://www.w3.org/2000/svg" xmlns:xlink="http://www.w3.org/1999/xlink">
<g id="graph0" class="graph" transform="scale(1 1) rotate(0) translate(76 397)">
<title>aliases</title>
<polygon fill="#ffffff" stroke="transparent" points="-4,4 -4,-325 243,-325 243,4 -4,4"/>
<text text-anchor="start" x="8" y="-18" font-family="Courier,monospace" font-size="10.00" fill="#696969">File load diagram for directory demo/</text>
<text text-anchor="start" x="8" y="-7" font-family="Courier,monospace" font-size="10.00" fill="#696969">Generated on 2019/10/25, 21:53</text>
<g id="clust1" class="cluster">
<title>cluster_directory_aliases</title>
<g id="a_clust1"><a xlink:title="demo/">
<path fill="#f5f5f5" stroke="#696969" d="M69.5,-38C69.5,-38 169.5,-38 169.5,-38 175.5,-38 181.5,-44 181.5,-50 181.5,-50 181.5,-301 181.5,-301 181.5,-307 175.5,-313 169.5,-313 169.5,-313 69.5,-313 69.5,-313 63.5,-313 57.5,-307 57.5,-301 57.5,-301 57.5,-50 57.5,-50 57.5,-44 63.5,-38 69.5,-38"/>
<text text-anchor="start" x="70" y="-296.5" font-family="Courier,monospace" font-size="10.00" fill="#696969">demo/</text>
</a>
</g>
</g>
<!-- /home/runner/work/demo/demo/loader.lgt -->
<g id="node1" class="node">
<title>/home/runner/work/demo/demo/loader.lgt</title>
<g id="a_node1"><a xlink:title="demo/loader.lgt">
<polygon fill="#afeeee" stroke="#000000" points="167.5,-276 71.5,-276 71.5,-240 167.5,-240 167.5,-276"/>
<text text-anchor="start" x="79.5" y="-260.8" font-family="Courier,monospace" font-size="9.00" fill="#000000"> </text>
<text text-anchor="start" x="85.5" y="-260.2" font-family="Courier,monospace" font-size="11.00" fill="#000000">loader.lgt</text>
<text text-anchor="start" x="153.5" y="-260.8" font-family="Courier,monospace" font-size="9.00" fill="#000000"> </text>
<text text-anchor="start" x="79.5" y="-249.8" font-family="Courier,monospace" font-size="9.00" fill="#000000"> </text>
<text text-anchor="start" x="110" y="-250.4" font-family="Courier,monospace" font-size="7.00" fill="#000000">file</text>
<text text-anchor="start" x="153.5" y="-249.8" font-family="Courier,monospace" font-size="9.00" fill="#000000"> </text>
</a>
</g>
</g>
<!-- /home/runner/work/demo/demo/aliases.lgt -->
<g id="node2" class="node">
<title>/home/runner/work/demo/demo/aliases.lgt</title>
<g id="a_node2"><a xlink:title="demo/aliases.lgt">
<polygon fill="#afeeee" stroke="#000000" points="171,-84 68,-84 68,-48 171,-48 171,-84"/>
<text text-anchor="start" x="76.5" y="-68.8" font-family="Courier,monospace" font-size="9.00" fill="#000000"> </text>
<text text-anchor="start" x="82.5" y="-68.2" font-family="Courier,monospace" font-size="11.00" fill="#000000">aliases.lgt</text>
<text text-anchor="start" x="157.5" y="-68.8" font-family="Courier,monospace" font-size="9.00" fill="#000000"> </text>
<text text-anchor="start" x="76.5" y="-57.8" font-family="Courier,monospace" font-size="9.00" fill="#000000"> </text>
<text text-anchor="start" x="110.5" y="-58.4" font-family="Courier,monospace" font-size="7.00" fill="#000000">file</text>
<text text-anchor="start" x="157.5" y="-57.8" font-family="Courier,monospace" font-size="9.00" fill="#000000"> </text>
</a>
</g>
</g>
<!-- /home/runner/work/demo/demo/loader.lgt&#45;&gt;/home/runner/work/demo/demo/aliases.lgt -->
<g id="edge1" class="edge">
<title>/home/runner/work/demo/demo/loader.lgt&#45;&gt;/home/runner/work/demo/demo/aliases.lgt</title>
<path fill="none" stroke="#000000" d="M119.5,-239.9371C119.5,-206.4168 119.5,-134.3617 119.5,-94.3098"/>
<polygon fill="#000000" stroke="#000000" points="123.0001,-94.1547 119.5,-84.1548 116.0001,-94.1548 123.0001,-94.1547"/>
<g id="a_edge1&#45;label"><a xlink:title="loads">
<text text-anchor="middle" x="133" y="-159.8" font-family="Courier,monospace" font-size="9.00" fill="#000000">loads</text>
</a>
</g>
</g>
</g>
</svg>
