<?xml version="1.0" encoding="UTF-8" standalone="no"?>
<!DOCTYPE svg PUBLIC "-//W3C//DTD SVG 1.1//EN"
 "http://www.w3.org/Graphics/SVG/1.1/DTD/svg11.dtd">
<!-- Generated by graphviz version 2.40.1 (20161225.0304)
 -->
<!-- Title: aliases Pages: 1 -->
<svg width="425pt" height="1076pt"
 viewBox="72.00 72.00 353.00 1004.00" xmlns="http://www.w3.org/2000/svg" xmlns:xlink="http://www.w3.org/1999/xlink">
<g id="graph0" class="graph" transform="scale(1 1) rotate(0) translate(76 1000)">
<title>aliases</title>
<polygon fill="#ffffff" stroke="transparent" points="-4,4 -4,-928 277,-928 277,4 -4,4"/>
<text text-anchor="start" x="8" y="-18" font-family="Courier,monospace" font-size="10.00" fill="#696969">Inheritance diagram</text>
<text text-anchor="start" x="8" y="-7" font-family="Courier,monospace" font-size="10.00" fill="#696969">Generated on 2019/10/29, 15:36</text>
<g id="clust1" class="cluster">
<title>cluster_directory_aliases</title>
<path fill="#f5f5f5" stroke="#696969" d="M20,-38C20,-38 253,-38 253,-38 259,-38 265,-44 265,-50 265,-50 265,-904 265,-904 265,-910 259,-916 253,-916 253,-916 20,-916 20,-916 14,-916 8,-910 8,-904 8,-904 8,-50 8,-50 8,-44 14,-38 20,-38"/>
<text text-anchor="start" x="20.5" y="-48.5" font-family="Courier,monospace" font-size="10.00" fill="#696969">./</text>
</g>
<g id="clust3" class="cluster">
<title>cluster_file_/home/runner/work/demo/demo/aliases.lgt</title>
<g id="a_clust3"><a xlink:title="aliases.lgt">
<path fill="#fffafa" stroke="#696969" d="M30,-75C30,-75 243,-75 243,-75 249,-75 255,-81 255,-87 255,-87 255,-894 255,-894 255,-900 249,-906 243,-906 243,-906 30,-906 30,-906 24,-906 18,-900 18,-894 18,-894 18,-87 18,-87 18,-81 24,-75 30,-75"/>
<text text-anchor="start" x="30.5" y="-85.5" font-family="Courier,monospace" font-size="10.00" fill="#696969">aliases.lgt</text>
</a>
</g>
</g>
<!-- rectangle(_,_) -->
<g id="node1" class="node">
<title>rectangle(_,_)</title>
<g id="a_node1"><a xlink:title="prototype">
<polygon fill="#fff8dc" stroke="#000000" points="244.5,-896 121.5,-896 121.5,-826 244.5,-826 244.5,-896"/>
<text text-anchor="start" x="130" y="-883.8" font-family="Courier,monospace" font-size="9.00" fill="#000000"> </text>
<text text-anchor="start" x="136" y="-883.2" font-family="Courier,monospace" font-size="11.00" fill="#000000">rectangle(_,_)</text>
<text text-anchor="start" x="231" y="-883.8" font-family="Courier,monospace" font-size="9.00" fill="#000000"> </text>
<text text-anchor="start" x="130" y="-872.8" font-family="Courier,monospace" font-size="9.00" fill="#000000"> </text>
<text text-anchor="start" x="163" y="-873.4" font-family="Courier,monospace" font-size="7.00" fill="#000000">prototype</text>
<text text-anchor="start" x="231" y="-872.8" font-family="Courier,monospace" font-size="9.00" fill="#000000"> </text>
<text text-anchor="start" x="130" y="-862.8" font-family="Courier,monospace" font-size="9.00" fill="#000000"> </text>
<text text-anchor="start" x="130" y="-852.8" font-family="Courier,monospace" font-size="9.00" fill="#000000"> </text>
<text text-anchor="start" x="165" y="-852.8" font-family="Courier,monospace" font-size="9.00" fill="#000000">width/1</text>
<text text-anchor="start" x="231" y="-852.8" font-family="Courier,monospace" font-size="9.00" fill="#000000"> </text>
<text text-anchor="start" x="130" y="-842.8" font-family="Courier,monospace" font-size="9.00" fill="#000000"> </text>
<text text-anchor="start" x="162" y="-842.8" font-family="Courier,monospace" font-size="9.00" fill="#000000">height/1</text>
<text text-anchor="start" x="231" y="-842.8" font-family="Courier,monospace" font-size="9.00" fill="#000000"> </text>
<text text-anchor="start" x="130" y="-832.8" font-family="Courier,monospace" font-size="9.00" fill="#000000"> </text>
<text text-anchor="start" x="167.5" y="-832.8" font-family="Courier,monospace" font-size="9.00" fill="#000000">area/1</text>
<text text-anchor="start" x="231" y="-832.8" font-family="Courier,monospace" font-size="9.00" fill="#000000"> </text>
</a>
</g>
</g>
<!-- square(_) -->
<g id="node2" class="node">
<title>square(_)</title>
<g id="a_node2"><a xlink:title="prototype">
<polygon fill="#fff8dc" stroke="#000000" points="245.5,-505 156.5,-505 156.5,-469 245.5,-469 245.5,-505"/>
<text text-anchor="start" x="165" y="-489.8" font-family="Courier,monospace" font-size="9.00" fill="#000000"> </text>
<text text-anchor="start" x="171" y="-489.2" font-family="Courier,monospace" font-size="11.00" fill="#000000">square(_)</text>
<text text-anchor="start" x="232" y="-489.8" font-family="Courier,monospace" font-size="9.00" fill="#000000"> </text>
<text text-anchor="start" x="165" y="-478.8" font-family="Courier,monospace" font-size="9.00" fill="#000000"> </text>
<text text-anchor="start" x="181" y="-479.4" font-family="Courier,monospace" font-size="7.00" fill="#000000">prototype</text>
<text text-anchor="start" x="232" y="-478.8" font-family="Courier,monospace" font-size="9.00" fill="#000000"> </text>
</a>
</g>
</g>
<!-- square(_)&#45;&gt;rectangle(_,_) -->
<g id="edge1" class="edge">
<title>square(_)&#45;&gt;rectangle(_,_)</title>
<path fill="none" stroke="#000000" d="M198.5882,-505.0082C195.9223,-526.5034 192,-563.5565 192,-595.5 192,-595.5 192,-595.5 192,-752.5 192,-773.3286 190.3324,-796.3295 188.4329,-815.7733"/>
<polygon fill="#000000" stroke="#000000" points="187.3945,-825.8789 183.9403,-815.4713 187.9056,-820.9051 188.4167,-815.9313 188.4167,-815.9313 188.4167,-815.9313 187.9056,-820.9051 192.8932,-816.3913 187.3945,-825.8789 187.3945,-825.8789"/>
<g id="a_edge1&#45;label"><a xlink:title="extends">
<text text-anchor="middle" x="210.5" y="-671.8" font-family="Courier,monospace" font-size="9.00" fill="#000000">extends</text>
</a>
</g>
</g>
<!-- square1 -->
<g id="node3" class="node">
<title>square1</title>
<g id="a_node3"><a xlink:title="prototype">
<polygon fill="#fff8dc" stroke="#000000" points="239,-148 163,-148 163,-112 239,-112 239,-148"/>
<text text-anchor="start" x="171" y="-132.8" font-family="Courier,monospace" font-size="9.00" fill="#000000"> </text>
<text text-anchor="start" x="177" y="-132.2" font-family="Courier,monospace" font-size="11.00" fill="#000000">square1</text>
<text text-anchor="start" x="225" y="-132.8" font-family="Courier,monospace" font-size="9.00" fill="#000000"> </text>
<text text-anchor="start" x="171" y="-121.8" font-family="Courier,monospace" font-size="9.00" fill="#000000"> </text>
<text text-anchor="start" x="180.5" y="-122.4" font-family="Courier,monospace" font-size="7.00" fill="#000000">prototype</text>
<text text-anchor="start" x="225" y="-121.8" font-family="Courier,monospace" font-size="9.00" fill="#000000"> </text>
</a>
</g>
</g>
<!-- square1&#45;&gt;square(_) -->
<g id="edge2" class="edge">
<title>square1&#45;&gt;square(_)</title>
<path fill="none" stroke="#000000" d="M201,-148.2285C201,-166.6953 201,-196.0833 201,-221.5 201,-221.5 201,-221.5 201,-378.5 201,-405.7332 201,-436.8113 201,-458.7059"/>
<polygon fill="#000000" stroke="#000000" points="201,-468.9539 196.5001,-458.9539 201,-463.9539 201.0001,-458.9539 201.0001,-458.9539 201.0001,-458.9539 201,-463.9539 205.5001,-458.954 201,-468.9539 201,-468.9539"/>
<g id="a_edge2&#45;label"><a xlink:title="extends">
<text text-anchor="middle" x="219.5" y="-297.8" font-family="Courier,monospace" font-size="9.00" fill="#000000">extends</text>
</a>
</g>
</g>
<!-- ellipse(_,_) -->
<g id="node4" class="node">
<title>ellipse(_,_)</title>
<g id="a_node4"><a xlink:title="prototype">
<polygon fill="#fff8dc" stroke="#000000" points="138,-522 28,-522 28,-452 138,-452 138,-522"/>
<text text-anchor="start" x="36" y="-509.8" font-family="Courier,monospace" font-size="9.00" fill="#000000"> </text>
<text text-anchor="start" x="42" y="-509.2" font-family="Courier,monospace" font-size="11.00" fill="#000000">ellipse(_,_)</text>
<text text-anchor="start" x="124" y="-509.8" font-family="Courier,monospace" font-size="9.00" fill="#000000"> </text>
<text text-anchor="start" x="36" y="-498.8" font-family="Courier,monospace" font-size="9.00" fill="#000000"> </text>
<text text-anchor="start" x="62.5" y="-499.4" font-family="Courier,monospace" font-size="7.00" fill="#000000">prototype</text>
<text text-anchor="start" x="124" y="-498.8" font-family="Courier,monospace" font-size="9.00" fill="#000000"> </text>
<text text-anchor="start" x="36" y="-488.8" font-family="Courier,monospace" font-size="9.00" fill="#000000"> </text>
<text text-anchor="start" x="36" y="-478.8" font-family="Courier,monospace" font-size="9.00" fill="#000000"> </text>
<text text-anchor="start" x="72" y="-478.8" font-family="Courier,monospace" font-size="9.00" fill="#000000">rx/1</text>
<text text-anchor="start" x="124" y="-478.8" font-family="Courier,monospace" font-size="9.00" fill="#000000"> </text>
<text text-anchor="start" x="36" y="-468.8" font-family="Courier,monospace" font-size="9.00" fill="#000000"> </text>
<text text-anchor="start" x="72" y="-468.8" font-family="Courier,monospace" font-size="9.00" fill="#000000">ry/1</text>
<text text-anchor="start" x="124" y="-468.8" font-family="Courier,monospace" font-size="9.00" fill="#000000"> </text>
<text text-anchor="start" x="36" y="-458.8" font-family="Courier,monospace" font-size="9.00" fill="#000000"> </text>
<text text-anchor="start" x="67" y="-458.8" font-family="Courier,monospace" font-size="9.00" fill="#000000">area/1</text>
<text text-anchor="start" x="124" y="-458.8" font-family="Courier,monospace" font-size="9.00" fill="#000000"> </text>
</a>
</g>
</g>
<!-- circle(_) -->
<g id="node5" class="node">
<title>circle(_)</title>
<g id="a_node5"><a xlink:title="prototype">
<polygon fill="#fff8dc" stroke="#000000" points="127.5,-148 38.5,-148 38.5,-112 127.5,-112 127.5,-148"/>
<text text-anchor="start" x="47" y="-132.8" font-family="Courier,monospace" font-size="9.00" fill="#000000"> </text>
<text text-anchor="start" x="53" y="-132.2" font-family="Courier,monospace" font-size="11.00" fill="#000000">circle(_)</text>
<text text-anchor="start" x="114" y="-132.8" font-family="Courier,monospace" font-size="9.00" fill="#000000"> </text>
<text text-anchor="start" x="47" y="-121.8" font-family="Courier,monospace" font-size="9.00" fill="#000000"> </text>
<text text-anchor="start" x="63" y="-122.4" font-family="Courier,monospace" font-size="7.00" fill="#000000">prototype</text>
<text text-anchor="start" x="114" y="-121.8" font-family="Courier,monospace" font-size="9.00" fill="#000000"> </text>
</a>
</g>
</g>
<!-- circle(_)&#45;&gt;ellipse(_,_) -->
<g id="edge3" class="edge">
<title>circle(_)&#45;&gt;ellipse(_,_)</title>
<path fill="none" stroke="#000000" d="M83,-148.2285C83,-166.6953 83,-196.0833 83,-221.5 83,-221.5 83,-221.5 83,-378.5 83,-399.2573 83,-422.2483 83,-441.704"/>
<polygon fill="#000000" stroke="#000000" points="83,-451.8178 78.5001,-441.8178 83,-446.8178 83.0001,-441.8178 83.0001,-441.8178 83.0001,-441.8178 83,-446.8178 87.5001,-441.8179 83,-451.8178 83,-451.8178"/>
<g id="a_edge3&#45;label"><a xlink:title="extends">
<text text-anchor="middle" x="101.5" y="-297.8" font-family="Courier,monospace" font-size="9.00" fill="#000000">extends</text>
</a>
</g>
</g>
</g>
</svg>
