<?xml version="1.0" encoding="UTF-8" standalone="no"?>
<!DOCTYPE svg PUBLIC "-//W3C//DTD SVG 1.1//EN"
 "http://www.w3.org/Graphics/SVG/1.1/DTD/svg11.dtd">
<!-- Generated by graphviz version 2.40.1 (20161225.0304)
 -->
<!-- Title: aliases Pages: 1 -->
<svg width="349pt" height="281pt"
 viewBox="72.00 72.00 277.00 209.00" xmlns="http://www.w3.org/2000/svg" xmlns:xlink="http://www.w3.org/1999/xlink">
<g id="graph0" class="graph" transform="scale(1 1) rotate(0) translate(76 205)">
<title>aliases</title>
<polygon fill="#ffffff" stroke="transparent" points="-4,4 -4,-133 201,-133 201,4 -4,4"/>
<text text-anchor="start" x="8" y="-18" font-family="Courier,monospace" font-size="10.00" fill="#696969">Directory load diagram</text>
<text text-anchor="start" x="8" y="-7" font-family="Courier,monospace" font-size="10.00" fill="#696969">Generated on 2019/11/01, 10:26</text>
<g id="clust1" class="cluster">
<title>cluster_directory_aliases</title>
<path fill="#f5f5f5" stroke="#696969" d="M65.5,-38C65.5,-38 131.5,-38 131.5,-38 137.5,-38 143.5,-44 143.5,-50 143.5,-50 143.5,-109 143.5,-109 143.5,-115 137.5,-121 131.5,-121 131.5,-121 65.5,-121 65.5,-121 59.5,-121 53.5,-115 53.5,-109 53.5,-109 53.5,-50 53.5,-50 53.5,-44 59.5,-38 65.5,-38"/>
<text text-anchor="start" x="66" y="-104.5" font-family="Courier,monospace" font-size="10.00" fill="#696969">./</text>
</g>
<!-- /home/runner/work/demo/demo/ -->
<g id="node1" class="node">
<title>/home/runner/work/demo/demo/</title>
<polygon fill="#ffa07a" stroke="#000000" points="133,-84 76,-84 76,-88 64,-88 64,-48 133,-48 133,-84"/>
<polyline fill="none" stroke="#000000" points="64,-84 76,-84 "/>
<text text-anchor="start" x="72.5" y="-68.8" font-family="Courier,monospace" font-size="9.00" fill="#000000"> </text>
<text text-anchor="start" x="92" y="-68.2" font-family="Courier,monospace" font-size="11.00" fill="#000000">./</text>
<text text-anchor="start" x="119.5" y="-68.8" font-family="Courier,monospace" font-size="9.00" fill="#000000"> </text>
<text text-anchor="start" x="72.5" y="-57.8" font-family="Courier,monospace" font-size="9.00" fill="#000000"> </text>
<text text-anchor="start" x="78.5" y="-58.4" font-family="Courier,monospace" font-size="7.00" fill="#000000">directory</text>
<text text-anchor="start" x="119.5" y="-57.8" font-family="Courier,monospace" font-size="9.00" fill="#000000"> </text>
</g>
</g>
</svg>
