<?xml version="1.0" encoding="UTF-8" standalone="no"?>
<?xml-stylesheet href="diagrams.css" type="text/css"?>
<!DOCTYPE svg PUBLIC "-//W3C//DTD SVG 1.1//EN"
 "http://www.w3.org/Graphics/SVG/1.1/DTD/svg11.dtd">
<!-- Generated by graphviz version 2.40.1 (20161225.0304)
 -->
<!-- Title: aliases Pages: 1 -->
<svg width="406pt" height="281pt"
 viewBox="72.00 72.00 334.00 209.00" xmlns="http://www.w3.org/2000/svg" xmlns:xlink="http://www.w3.org/1999/xlink">
<g id="graph0" class="graph" transform="scale(1 1) rotate(0) translate(76 205)">
<title>aliases</title>
<polygon fill="#ffffff" stroke="transparent" points="-4,4 -4,-133 258,-133 258,4 -4,4"/>
<text text-anchor="start" x="8" y="-18" font-family="Courier,monospace" font-size="10.00" fill="#696969">File dependency diagram</text>
<text text-anchor="start" x="8" y="-7" font-family="Courier,monospace" font-size="10.00" fill="#696969">Generated on 2021&#45;01&#45;03, 22:16</text>
<g id="clust1" class="cluster">
<title>cluster_directory_aliases</title>
<path fill="#f5f5f5" stroke="#696969" d="M20,-38C20,-38 234,-38 234,-38 240,-38 246,-44 246,-50 246,-50 246,-109 246,-109 246,-115 240,-121 234,-121 234,-121 20,-121 20,-121 14,-121 8,-115 8,-109 8,-109 8,-50 8,-50 8,-44 14,-38 20,-38"/>
<text text-anchor="start" x="20.5" y="-104.5" font-family="Courier,monospace" font-size="10.00" fill="#696969">./</text>
</g>
<!-- /home/runner/work/demo/demo/loader.lgt -->
<g id="node1" class="node">
<title>/home/runner/work/demo/demo/loader.lgt</title>
<g id="a_node1"><a xlink:title="loader.lgt">
<polygon fill="#afeeee" stroke="#000000" points="236,-84 140,-84 140,-48 236,-48 236,-84"/>
<text text-anchor="start" x="148" y="-68.8" font-family="Courier,monospace" font-size="9.00" fill="#000000"> </text>
<text text-anchor="start" x="154" y="-68.2" font-family="Courier,monospace" font-size="11.00" fill="#000000">loader.lgt</text>
<text text-anchor="start" x="222" y="-68.8" font-family="Courier,monospace" font-size="9.00" fill="#000000"> </text>
<text text-anchor="start" x="148" y="-57.8" font-family="Courier,monospace" font-size="9.00" fill="#000000"> </text>
<text text-anchor="start" x="178.5" y="-58.4" font-family="Courier,monospace" font-size="7.00" fill="#000000">file</text>
<text text-anchor="start" x="222" y="-57.8" font-family="Courier,monospace" font-size="9.00" fill="#000000"> </text>
</a>
</g>
</g>
<!-- /home/runner/work/demo/demo/aliases.lgt -->
<g id="node2" class="node">
<title>/home/runner/work/demo/demo/aliases.lgt</title>
<g id="a_node2"><a xlink:title="aliases.lgt">
<polygon fill="#afeeee" stroke="#000000" points="121.5,-84 18.5,-84 18.5,-48 121.5,-48 121.5,-84"/>
<text text-anchor="start" x="27" y="-68.8" font-family="Courier,monospace" font-size="9.00" fill="#000000"> </text>
<text text-anchor="start" x="33" y="-68.2" font-family="Courier,monospace" font-size="11.00" fill="#000000">aliases.lgt</text>
<text text-anchor="start" x="108" y="-68.8" font-family="Courier,monospace" font-size="9.00" fill="#000000"> </text>
<text text-anchor="start" x="27" y="-57.8" font-family="Courier,monospace" font-size="9.00" fill="#000000"> </text>
<text text-anchor="start" x="61" y="-58.4" font-family="Courier,monospace" font-size="7.00" fill="#000000">file</text>
<text text-anchor="start" x="108" y="-57.8" font-family="Courier,monospace" font-size="9.00" fill="#000000"> </text>
</a>
</g>
</g>
</g>
</svg>
