<?xml version="1.0" encoding="UTF-8" standalone="no"?>
<!DOCTYPE svg PUBLIC "-//W3C//DTD SVG 1.1//EN"
 "http://www.w3.org/Graphics/SVG/1.1/DTD/svg11.dtd">
<!-- Generated by graphviz version 2.40.1 (20161225.0304)
 -->
<!-- Title: demo Pages: 1 -->
<svg width="541pt" height="1076pt"
 viewBox="72.00 72.00 469.00 1004.00" xmlns="http://www.w3.org/2000/svg" xmlns:xlink="http://www.w3.org/1999/xlink">
<g id="graph0" class="graph" transform="scale(1 1) rotate(0) translate(76 1000)">
<title>demo</title>
<polygon fill="#ffffff" stroke="transparent" points="-4,4 -4,-928 393,-928 393,4 -4,4"/>
<text text-anchor="start" x="8" y="-18" font-family="Courier,monospace" font-size="10.00" fill="#696969">Inheritance diagram for directory /home/runner/work/demo/demo/</text>
<text text-anchor="start" x="8" y="-7" font-family="Courier,monospace" font-size="10.00" fill="#696969">Generated on 2019/10/25, 21:25</text>
<g id="clust1" class="cluster">
<title>cluster_directory_demo</title>
<g id="a_clust1"><a xlink:title="/home/runner/work/demo/demo/">
<path fill="#f5f5f5" stroke="#696969" d="M78,-38C78,-38 311,-38 311,-38 317,-38 323,-44 323,-50 323,-50 323,-904 323,-904 323,-910 317,-916 311,-916 311,-916 78,-916 78,-916 72,-916 66,-910 66,-904 66,-904 66,-50 66,-50 66,-44 72,-38 78,-38"/>
<text text-anchor="start" x="78.5" y="-48.5" font-family="Courier,monospace" font-size="10.00" fill="#696969">/home/runner/work/demo/demo/</text>
</a>
</g>
</g>
<g id="clust3" class="cluster">
<title>cluster_file_/home/runner/work/demo/demo/aliases.lgt</title>
<g id="a_clust3"><a xlink:title="/home/runner/work/demo/demo/aliases.lgt">
<path fill="#fffafa" stroke="#696969" d="M88,-75C88,-75 301,-75 301,-75 307,-75 313,-81 313,-87 313,-87 313,-894 313,-894 313,-900 307,-906 301,-906 301,-906 88,-906 88,-906 82,-906 76,-900 76,-894 76,-894 76,-87 76,-87 76,-81 82,-75 88,-75"/>
<text text-anchor="start" x="88.5" y="-85.5" font-family="Courier,monospace" font-size="10.00" fill="#696969">aliases.lgt</text>
</a>
</g>
</g>
<!-- rectangle(_,_) -->
<g id="node1" class="node">
<title>rectangle(_,_)</title>
<g id="a_node1"><a xlink:title="prototype">
<polygon fill="#fff8dc" stroke="#000000" points="302.5,-896 179.5,-896 179.5,-826 302.5,-826 302.5,-896"/>
<text text-anchor="start" x="188" y="-883.8" font-family="Courier,monospace" font-size="9.00" fill="#000000"> </text>
<text text-anchor="start" x="194" y="-883.2" font-family="Courier,monospace" font-size="11.00" fill="#000000">rectangle(_,_)</text>
<text text-anchor="start" x="289" y="-883.8" font-family="Courier,monospace" font-size="9.00" fill="#000000"> </text>
<text text-anchor="start" x="188" y="-872.8" font-family="Courier,monospace" font-size="9.00" fill="#000000"> </text>
<text text-anchor="start" x="221" y="-873.4" font-family="Courier,monospace" font-size="7.00" fill="#000000">prototype</text>
<text text-anchor="start" x="289" y="-872.8" font-family="Courier,monospace" font-size="9.00" fill="#000000"> </text>
<text text-anchor="start" x="188" y="-862.8" font-family="Courier,monospace" font-size="9.00" fill="#000000"> </text>
<text text-anchor="start" x="188" y="-852.8" font-family="Courier,monospace" font-size="9.00" fill="#000000"> </text>
<text text-anchor="start" x="223" y="-852.8" font-family="Courier,monospace" font-size="9.00" fill="#000000">width/1</text>
<text text-anchor="start" x="289" y="-852.8" font-family="Courier,monospace" font-size="9.00" fill="#000000"> </text>
<text text-anchor="start" x="188" y="-842.8" font-family="Courier,monospace" font-size="9.00" fill="#000000"> </text>
<text text-anchor="start" x="220" y="-842.8" font-family="Courier,monospace" font-size="9.00" fill="#000000">height/1</text>
<text text-anchor="start" x="289" y="-842.8" font-family="Courier,monospace" font-size="9.00" fill="#000000"> </text>
<text text-anchor="start" x="188" y="-832.8" font-family="Courier,monospace" font-size="9.00" fill="#000000"> </text>
<text text-anchor="start" x="225.5" y="-832.8" font-family="Courier,monospace" font-size="9.00" fill="#000000">area/1</text>
<text text-anchor="start" x="289" y="-832.8" font-family="Courier,monospace" font-size="9.00" fill="#000000"> </text>
</a>
</g>
</g>
<!-- square(_) -->
<g id="node2" class="node">
<title>square(_)</title>
<g id="a_node2"><a xlink:title="prototype">
<polygon fill="#fff8dc" stroke="#000000" points="303.5,-505 214.5,-505 214.5,-469 303.5,-469 303.5,-505"/>
<text text-anchor="start" x="223" y="-489.8" font-family="Courier,monospace" font-size="9.00" fill="#000000"> </text>
<text text-anchor="start" x="229" y="-489.2" font-family="Courier,monospace" font-size="11.00" fill="#000000">square(_)</text>
<text text-anchor="start" x="290" y="-489.8" font-family="Courier,monospace" font-size="9.00" fill="#000000"> </text>
<text text-anchor="start" x="223" y="-478.8" font-family="Courier,monospace" font-size="9.00" fill="#000000"> </text>
<text text-anchor="start" x="239" y="-479.4" font-family="Courier,monospace" font-size="7.00" fill="#000000">prototype</text>
<text text-anchor="start" x="290" y="-478.8" font-family="Courier,monospace" font-size="9.00" fill="#000000"> </text>
</a>
</g>
</g>
<!-- square(_)&#45;&gt;rectangle(_,_) -->
<g id="edge1" class="edge">
<title>square(_)&#45;&gt;rectangle(_,_)</title>
<path fill="none" stroke="#000000" d="M256.5882,-505.0082C253.9223,-526.5034 250,-563.5565 250,-595.5 250,-595.5 250,-595.5 250,-752.5 250,-773.3286 248.3324,-796.3295 246.4329,-815.7733"/>
<polygon fill="#000000" stroke="#000000" points="245.3945,-825.8789 241.9403,-815.4713 245.9056,-820.9051 246.4167,-815.9313 246.4167,-815.9313 246.4167,-815.9313 245.9056,-820.9051 250.8932,-816.3913 245.3945,-825.8789 245.3945,-825.8789"/>
<g id="a_edge1&#45;label"><a xlink:title="extends">
<text text-anchor="middle" x="268.5" y="-671.8" font-family="Courier,monospace" font-size="9.00" fill="#000000">extends</text>
</a>
</g>
</g>
<!-- square1 -->
<g id="node3" class="node">
<title>square1</title>
<g id="a_node3"><a xlink:title="prototype">
<polygon fill="#fff8dc" stroke="#000000" points="297,-148 221,-148 221,-112 297,-112 297,-148"/>
<text text-anchor="start" x="229" y="-132.8" font-family="Courier,monospace" font-size="9.00" fill="#000000"> </text>
<text text-anchor="start" x="235" y="-132.2" font-family="Courier,monospace" font-size="11.00" fill="#000000">square1</text>
<text text-anchor="start" x="283" y="-132.8" font-family="Courier,monospace" font-size="9.00" fill="#000000"> </text>
<text text-anchor="start" x="229" y="-121.8" font-family="Courier,monospace" font-size="9.00" fill="#000000"> </text>
<text text-anchor="start" x="238.5" y="-122.4" font-family="Courier,monospace" font-size="7.00" fill="#000000">prototype</text>
<text text-anchor="start" x="283" y="-121.8" font-family="Courier,monospace" font-size="9.00" fill="#000000"> </text>
</a>
</g>
</g>
<!-- square1&#45;&gt;square(_) -->
<g id="edge2" class="edge">
<title>square1&#45;&gt;square(_)</title>
<path fill="none" stroke="#000000" d="M259,-148.2285C259,-166.6953 259,-196.0833 259,-221.5 259,-221.5 259,-221.5 259,-378.5 259,-405.7332 259,-436.8113 259,-458.7059"/>
<polygon fill="#000000" stroke="#000000" points="259,-468.9539 254.5001,-458.9539 259,-463.9539 259.0001,-458.9539 259.0001,-458.9539 259.0001,-458.9539 259,-463.9539 263.5001,-458.954 259,-468.9539 259,-468.9539"/>
<g id="a_edge2&#45;label"><a xlink:title="extends">
<text text-anchor="middle" x="277.5" y="-297.8" font-family="Courier,monospace" font-size="9.00" fill="#000000">extends</text>
</a>
</g>
</g>
<!-- ellipse(_,_) -->
<g id="node4" class="node">
<title>ellipse(_,_)</title>
<g id="a_node4"><a xlink:title="prototype">
<polygon fill="#fff8dc" stroke="#000000" points="196,-522 86,-522 86,-452 196,-452 196,-522"/>
<text text-anchor="start" x="94" y="-509.8" font-family="Courier,monospace" font-size="9.00" fill="#000000"> </text>
<text text-anchor="start" x="100" y="-509.2" font-family="Courier,monospace" font-size="11.00" fill="#000000">ellipse(_,_)</text>
<text text-anchor="start" x="182" y="-509.8" font-family="Courier,monospace" font-size="9.00" fill="#000000"> </text>
<text text-anchor="start" x="94" y="-498.8" font-family="Courier,monospace" font-size="9.00" fill="#000000"> </text>
<text text-anchor="start" x="120.5" y="-499.4" font-family="Courier,monospace" font-size="7.00" fill="#000000">prototype</text>
<text text-anchor="start" x="182" y="-498.8" font-family="Courier,monospace" font-size="9.00" fill="#000000"> </text>
<text text-anchor="start" x="94" y="-488.8" font-family="Courier,monospace" font-size="9.00" fill="#000000"> </text>
<text text-anchor="start" x="94" y="-478.8" font-family="Courier,monospace" font-size="9.00" fill="#000000"> </text>
<text text-anchor="start" x="130" y="-478.8" font-family="Courier,monospace" font-size="9.00" fill="#000000">rx/1</text>
<text text-anchor="start" x="182" y="-478.8" font-family="Courier,monospace" font-size="9.00" fill="#000000"> </text>
<text text-anchor="start" x="94" y="-468.8" font-family="Courier,monospace" font-size="9.00" fill="#000000"> </text>
<text text-anchor="start" x="130" y="-468.8" font-family="Courier,monospace" font-size="9.00" fill="#000000">ry/1</text>
<text text-anchor="start" x="182" y="-468.8" font-family="Courier,monospace" font-size="9.00" fill="#000000"> </text>
<text text-anchor="start" x="94" y="-458.8" font-family="Courier,monospace" font-size="9.00" fill="#000000"> </text>
<text text-anchor="start" x="125" y="-458.8" font-family="Courier,monospace" font-size="9.00" fill="#000000">area/1</text>
<text text-anchor="start" x="182" y="-458.8" font-family="Courier,monospace" font-size="9.00" fill="#000000"> </text>
</a>
</g>
</g>
<!-- circle(_) -->
<g id="node5" class="node">
<title>circle(_)</title>
<g id="a_node5"><a xlink:title="prototype">
<polygon fill="#fff8dc" stroke="#000000" points="185.5,-148 96.5,-148 96.5,-112 185.5,-112 185.5,-148"/>
<text text-anchor="start" x="105" y="-132.8" font-family="Courier,monospace" font-size="9.00" fill="#000000"> </text>
<text text-anchor="start" x="111" y="-132.2" font-family="Courier,monospace" font-size="11.00" fill="#000000">circle(_)</text>
<text text-anchor="start" x="172" y="-132.8" font-family="Courier,monospace" font-size="9.00" fill="#000000"> </text>
<text text-anchor="start" x="105" y="-121.8" font-family="Courier,monospace" font-size="9.00" fill="#000000"> </text>
<text text-anchor="start" x="121" y="-122.4" font-family="Courier,monospace" font-size="7.00" fill="#000000">prototype</text>
<text text-anchor="start" x="172" y="-121.8" font-family="Courier,monospace" font-size="9.00" fill="#000000"> </text>
</a>
</g>
</g>
<!-- circle(_)&#45;&gt;ellipse(_,_) -->
<g id="edge3" class="edge">
<title>circle(_)&#45;&gt;ellipse(_,_)</title>
<path fill="none" stroke="#000000" d="M141,-148.2285C141,-166.6953 141,-196.0833 141,-221.5 141,-221.5 141,-221.5 141,-378.5 141,-399.2573 141,-422.2483 141,-441.704"/>
<polygon fill="#000000" stroke="#000000" points="141,-451.8178 136.5001,-441.8178 141,-446.8178 141.0001,-441.8178 141.0001,-441.8178 141.0001,-441.8178 141,-446.8178 145.5001,-441.8179 141,-451.8178 141,-451.8178"/>
<g id="a_edge3&#45;label"><a xlink:title="extends">
<text text-anchor="middle" x="159.5" y="-297.8" font-family="Courier,monospace" font-size="9.00" fill="#000000">extends</text>
</a>
</g>
</g>
</g>
</svg>
