<?xml version="1.0" encoding="UTF-8" standalone="no"?>
<!DOCTYPE svg PUBLIC "-//W3C//DTD SVG 1.1//EN"
 "http://www.w3.org/Graphics/SVG/1.1/DTD/svg11.dtd">
<!-- Generated by graphviz version 2.40.1 (20161225.0304)
 -->
<!-- Title: demo Pages: 1 -->
<svg width="595pt" height="281pt"
 viewBox="72.00 72.00 523.00 209.00" xmlns="http://www.w3.org/2000/svg" xmlns:xlink="http://www.w3.org/1999/xlink">
<g id="graph0" class="graph" transform="scale(1 1) rotate(0) translate(76 205)">
<title>demo</title>
<polygon fill="#ffffff" stroke="transparent" points="-4,4 -4,-133 447,-133 447,4 -4,4"/>
<text text-anchor="start" x="8" y="-18" font-family="Courier,monospace" font-size="10.00" fill="#696969">Directory dependency diagram for directory /home/runner/work/demo/demo/</text>
<text text-anchor="start" x="8" y="-7" font-family="Courier,monospace" font-size="10.00" fill="#696969">Generated on 2019/10/23, 10:05</text>
<g id="clust1" class="cluster">
<title>cluster_directory_demo</title>
<g id="a_clust1"><a xlink:title="/home/runner/work/demo/demo/">
<path fill="#f5f5f5" stroke="#696969" d="M114.5,-38C114.5,-38 328.5,-38 328.5,-38 334.5,-38 340.5,-44 340.5,-50 340.5,-50 340.5,-109 340.5,-109 340.5,-115 334.5,-121 328.5,-121 328.5,-121 114.5,-121 114.5,-121 108.5,-121 102.5,-115 102.5,-109 102.5,-109 102.5,-50 102.5,-50 102.5,-44 108.5,-38 114.5,-38"/>
<text text-anchor="start" x="115" y="-104.5" font-family="Courier,monospace" font-size="10.00" fill="#696969">/home/runner/work/demo/demo/</text>
</a>
</g>
</g>
<!-- /home/runner/work/demo/demo/ -->
<g id="node1" class="node">
<title>/home/runner/work/demo/demo/</title>
<g id="a_node1"><a xlink:title="/home/runner/work/demo/demo/">
<polygon fill="#ffa07a" stroke="#000000" points="330.5,-84 124.5,-84 124.5,-88 112.5,-88 112.5,-48 330.5,-48 330.5,-84"/>
<polyline fill="none" stroke="#000000" points="112.5,-84 124.5,-84 "/>
<text text-anchor="start" x="120.5" y="-68.8" font-family="Courier,monospace" font-size="9.00" fill="#000000"> </text>
<text text-anchor="start" x="126.5" y="-68.2" font-family="Courier,monospace" font-size="11.00" fill="#000000">/home/runner/work/demo/demo/</text>
<text text-anchor="start" x="316.5" y="-68.8" font-family="Courier,monospace" font-size="9.00" fill="#000000"> </text>
<text text-anchor="start" x="120.5" y="-57.8" font-family="Courier,monospace" font-size="9.00" fill="#000000"> </text>
<text text-anchor="start" x="201" y="-58.4" font-family="Courier,monospace" font-size="7.00" fill="#000000">directory</text>
<text text-anchor="start" x="316.5" y="-57.8" font-family="Courier,monospace" font-size="9.00" fill="#000000"> </text>
</a>
</g>
</g>
</g>
</svg>
