<?xml version="1.0" encoding="UTF-8" standalone="no"?>
<!DOCTYPE svg PUBLIC "-//W3C//DTD SVG 1.1//EN"
 "http://www.w3.org/Graphics/SVG/1.1/DTD/svg11.dtd">
<!-- Generated by graphviz version 2.40.1 (20161225.0304)
 -->
<!-- Title: demo Pages: 1 -->
<svg width="565pt" height="281pt"
 viewBox="72.00 72.00 493.00 209.00" xmlns="http://www.w3.org/2000/svg" xmlns:xlink="http://www.w3.org/1999/xlink">
<g id="graph0" class="graph" transform="scale(1 1) rotate(0) translate(76 205)">
<title>demo</title>
<polygon fill="#ffffff" stroke="transparent" points="-4,4 -4,-133 417,-133 417,4 -4,4"/>
<text text-anchor="start" x="8" y="-18" font-family="Courier,monospace" font-size="10.00" fill="#696969">File dependency diagram for directory /home/runner/work/demo/demo/</text>
<text text-anchor="start" x="8" y="-7" font-family="Courier,monospace" font-size="10.00" fill="#696969">Generated on 2019/10/25, 21:25</text>
<g id="clust1" class="cluster">
<title>cluster_directory_demo</title>
<g id="a_clust1"><a xlink:title="/home/runner/work/demo/demo/">
<path fill="#f5f5f5" stroke="#696969" d="M99.5,-38C99.5,-38 313.5,-38 313.5,-38 319.5,-38 325.5,-44 325.5,-50 325.5,-50 325.5,-109 325.5,-109 325.5,-115 319.5,-121 313.5,-121 313.5,-121 99.5,-121 99.5,-121 93.5,-121 87.5,-115 87.5,-109 87.5,-109 87.5,-50 87.5,-50 87.5,-44 93.5,-38 99.5,-38"/>
<text text-anchor="start" x="100" y="-104.5" font-family="Courier,monospace" font-size="10.00" fill="#696969">/home/runner/work/demo/demo/</text>
</a>
</g>
</g>
<!-- /home/runner/work/demo/demo/loader.lgt -->
<g id="node1" class="node">
<title>/home/runner/work/demo/demo/loader.lgt</title>
<g id="a_node1"><a xlink:title="/home/runner/work/demo/demo/loader.lgt">
<polygon fill="#afeeee" stroke="#000000" points="315.5,-84 219.5,-84 219.5,-48 315.5,-48 315.5,-84"/>
<text text-anchor="start" x="227.5" y="-68.8" font-family="Courier,monospace" font-size="9.00" fill="#000000"> </text>
<text text-anchor="start" x="233.5" y="-68.2" font-family="Courier,monospace" font-size="11.00" fill="#000000">loader.lgt</text>
<text text-anchor="start" x="301.5" y="-68.8" font-family="Courier,monospace" font-size="9.00" fill="#000000"> </text>
<text text-anchor="start" x="227.5" y="-57.8" font-family="Courier,monospace" font-size="9.00" fill="#000000"> </text>
<text text-anchor="start" x="258" y="-58.4" font-family="Courier,monospace" font-size="7.00" fill="#000000">file</text>
<text text-anchor="start" x="301.5" y="-57.8" font-family="Courier,monospace" font-size="9.00" fill="#000000"> </text>
</a>
</g>
</g>
<!-- /home/runner/work/demo/demo/aliases.lgt -->
<g id="node2" class="node">
<title>/home/runner/work/demo/demo/aliases.lgt</title>
<g id="a_node2"><a xlink:title="/home/runner/work/demo/demo/aliases.lgt">
<polygon fill="#afeeee" stroke="#000000" points="201,-84 98,-84 98,-48 201,-48 201,-84"/>
<text text-anchor="start" x="106.5" y="-68.8" font-family="Courier,monospace" font-size="9.00" fill="#000000"> </text>
<text text-anchor="start" x="112.5" y="-68.2" font-family="Courier,monospace" font-size="11.00" fill="#000000">aliases.lgt</text>
<text text-anchor="start" x="187.5" y="-68.8" font-family="Courier,monospace" font-size="9.00" fill="#000000"> </text>
<text text-anchor="start" x="106.5" y="-57.8" font-family="Courier,monospace" font-size="9.00" fill="#000000"> </text>
<text text-anchor="start" x="140.5" y="-58.4" font-family="Courier,monospace" font-size="7.00" fill="#000000">file</text>
<text text-anchor="start" x="187.5" y="-57.8" font-family="Courier,monospace" font-size="9.00" fill="#000000"> </text>
</a>
</g>
</g>
</g>
</svg>
