<?xml version="1.0" encoding="UTF-8" standalone="no"?>
<!DOCTYPE svg PUBLIC "-//W3C//DTD SVG 1.1//EN"
 "http://www.w3.org/Graphics/SVG/1.1/DTD/svg11.dtd">
<!-- Generated by graphviz version 2.40.1 (20161225.0304)
 -->
<!-- Title: demo Pages: 1 -->
<svg width="511pt" height="1076pt"
 viewBox="72.00 72.00 439.00 1004.00" xmlns="http://www.w3.org/2000/svg" xmlns:xlink="http://www.w3.org/1999/xlink">
<g id="graph0" class="graph" transform="scale(1 1) rotate(0) translate(76 1000)">
<title>demo</title>
<polygon fill="#ffffff" stroke="transparent" points="-4,4 -4,-928 363,-928 363,4 -4,4"/>
<text text-anchor="start" x="8" y="-18" font-family="Courier,monospace" font-size="10.00" fill="#696969">Entity diagram for directory /home/runner/work/demo/demo/</text>
<text text-anchor="start" x="8" y="-7" font-family="Courier,monospace" font-size="10.00" fill="#696969">Generated on 2019/10/25, 21:25</text>
<g id="clust1" class="cluster">
<title>cluster_directory_demo</title>
<g id="a_clust1"><a xlink:title="/home/runner/work/demo/demo/">
<path fill="#f5f5f5" stroke="#696969" d="M63,-38C63,-38 296,-38 296,-38 302,-38 308,-44 308,-50 308,-50 308,-904 308,-904 308,-910 302,-916 296,-916 296,-916 63,-916 63,-916 57,-916 51,-910 51,-904 51,-904 51,-50 51,-50 51,-44 57,-38 63,-38"/>
<text text-anchor="start" x="63.5" y="-48.5" font-family="Courier,monospace" font-size="10.00" fill="#696969">/home/runner/work/demo/demo/</text>
</a>
</g>
</g>
<g id="clust3" class="cluster">
<title>cluster_file_/home/runner/work/demo/demo/aliases.lgt</title>
<g id="a_clust3"><a xlink:title="/home/runner/work/demo/demo/aliases.lgt">
<path fill="#fffafa" stroke="#696969" d="M73,-75C73,-75 286,-75 286,-75 292,-75 298,-81 298,-87 298,-87 298,-894 298,-894 298,-900 292,-906 286,-906 286,-906 73,-906 73,-906 67,-906 61,-900 61,-894 61,-894 61,-87 61,-87 61,-81 67,-75 73,-75"/>
<text text-anchor="start" x="73.5" y="-85.5" font-family="Courier,monospace" font-size="10.00" fill="#696969">aliases.lgt</text>
</a>
</g>
</g>
<!-- rectangle(_,_) -->
<g id="node1" class="node">
<title>rectangle(_,_)</title>
<g id="a_node1"><a xlink:title="prototype">
<polygon fill="#fff8dc" stroke="#000000" points="287.5,-896 164.5,-896 164.5,-826 287.5,-826 287.5,-896"/>
<text text-anchor="start" x="173" y="-883.8" font-family="Courier,monospace" font-size="9.00" fill="#000000"> </text>
<text text-anchor="start" x="179" y="-883.2" font-family="Courier,monospace" font-size="11.00" fill="#000000">rectangle(_,_)</text>
<text text-anchor="start" x="274" y="-883.8" font-family="Courier,monospace" font-size="9.00" fill="#000000"> </text>
<text text-anchor="start" x="173" y="-872.8" font-family="Courier,monospace" font-size="9.00" fill="#000000"> </text>
<text text-anchor="start" x="206" y="-873.4" font-family="Courier,monospace" font-size="7.00" fill="#000000">prototype</text>
<text text-anchor="start" x="274" y="-872.8" font-family="Courier,monospace" font-size="9.00" fill="#000000"> </text>
<text text-anchor="start" x="173" y="-862.8" font-family="Courier,monospace" font-size="9.00" fill="#000000"> </text>
<text text-anchor="start" x="173" y="-852.8" font-family="Courier,monospace" font-size="9.00" fill="#000000"> </text>
<text text-anchor="start" x="208" y="-852.8" font-family="Courier,monospace" font-size="9.00" fill="#000000">width/1</text>
<text text-anchor="start" x="274" y="-852.8" font-family="Courier,monospace" font-size="9.00" fill="#000000"> </text>
<text text-anchor="start" x="173" y="-842.8" font-family="Courier,monospace" font-size="9.00" fill="#000000"> </text>
<text text-anchor="start" x="205" y="-842.8" font-family="Courier,monospace" font-size="9.00" fill="#000000">height/1</text>
<text text-anchor="start" x="274" y="-842.8" font-family="Courier,monospace" font-size="9.00" fill="#000000"> </text>
<text text-anchor="start" x="173" y="-832.8" font-family="Courier,monospace" font-size="9.00" fill="#000000"> </text>
<text text-anchor="start" x="210.5" y="-832.8" font-family="Courier,monospace" font-size="9.00" fill="#000000">area/1</text>
<text text-anchor="start" x="274" y="-832.8" font-family="Courier,monospace" font-size="9.00" fill="#000000"> </text>
</a>
</g>
</g>
<!-- square(_) -->
<g id="node2" class="node">
<title>square(_)</title>
<g id="a_node2"><a xlink:title="prototype">
<polygon fill="#fff8dc" stroke="#000000" points="288.5,-505 199.5,-505 199.5,-469 288.5,-469 288.5,-505"/>
<text text-anchor="start" x="208" y="-489.8" font-family="Courier,monospace" font-size="9.00" fill="#000000"> </text>
<text text-anchor="start" x="214" y="-489.2" font-family="Courier,monospace" font-size="11.00" fill="#000000">square(_)</text>
<text text-anchor="start" x="275" y="-489.8" font-family="Courier,monospace" font-size="9.00" fill="#000000"> </text>
<text text-anchor="start" x="208" y="-478.8" font-family="Courier,monospace" font-size="9.00" fill="#000000"> </text>
<text text-anchor="start" x="224" y="-479.4" font-family="Courier,monospace" font-size="7.00" fill="#000000">prototype</text>
<text text-anchor="start" x="275" y="-478.8" font-family="Courier,monospace" font-size="9.00" fill="#000000"> </text>
</a>
</g>
</g>
<!-- square(_)&#45;&gt;rectangle(_,_) -->
<g id="edge1" class="edge">
<title>square(_)&#45;&gt;rectangle(_,_)</title>
<path fill="none" stroke="#000000" d="M241.5882,-505.0082C238.9223,-526.5034 235,-563.5565 235,-595.5 235,-595.5 235,-595.5 235,-752.5 235,-773.3286 233.3324,-796.3295 231.4329,-815.7733"/>
<polygon fill="#000000" stroke="#000000" points="230.3945,-825.8789 226.9403,-815.4713 230.9056,-820.9051 231.4167,-815.9313 231.4167,-815.9313 231.4167,-815.9313 230.9056,-820.9051 235.8932,-816.3913 230.3945,-825.8789 230.3945,-825.8789"/>
<g id="a_edge1&#45;label"><a xlink:title="extends">
<text text-anchor="middle" x="253.5" y="-671.8" font-family="Courier,monospace" font-size="9.00" fill="#000000">extends</text>
</a>
</g>
</g>
<!-- square1 -->
<g id="node3" class="node">
<title>square1</title>
<g id="a_node3"><a xlink:title="prototype">
<polygon fill="#fff8dc" stroke="#000000" points="282,-148 206,-148 206,-112 282,-112 282,-148"/>
<text text-anchor="start" x="214" y="-132.8" font-family="Courier,monospace" font-size="9.00" fill="#000000"> </text>
<text text-anchor="start" x="220" y="-132.2" font-family="Courier,monospace" font-size="11.00" fill="#000000">square1</text>
<text text-anchor="start" x="268" y="-132.8" font-family="Courier,monospace" font-size="9.00" fill="#000000"> </text>
<text text-anchor="start" x="214" y="-121.8" font-family="Courier,monospace" font-size="9.00" fill="#000000"> </text>
<text text-anchor="start" x="223.5" y="-122.4" font-family="Courier,monospace" font-size="7.00" fill="#000000">prototype</text>
<text text-anchor="start" x="268" y="-121.8" font-family="Courier,monospace" font-size="9.00" fill="#000000"> </text>
</a>
</g>
</g>
<!-- square1&#45;&gt;square(_) -->
<g id="edge2" class="edge">
<title>square1&#45;&gt;square(_)</title>
<path fill="none" stroke="#000000" d="M244,-148.2285C244,-166.6953 244,-196.0833 244,-221.5 244,-221.5 244,-221.5 244,-378.5 244,-405.7332 244,-436.8113 244,-458.7059"/>
<polygon fill="#000000" stroke="#000000" points="244,-468.9539 239.5001,-458.9539 244,-463.9539 244.0001,-458.9539 244.0001,-458.9539 244.0001,-458.9539 244,-463.9539 248.5001,-458.954 244,-468.9539 244,-468.9539"/>
<g id="a_edge2&#45;label"><a xlink:title="extends">
<text text-anchor="middle" x="262.5" y="-297.8" font-family="Courier,monospace" font-size="9.00" fill="#000000">extends</text>
</a>
</g>
</g>
<!-- ellipse(_,_) -->
<g id="node4" class="node">
<title>ellipse(_,_)</title>
<g id="a_node4"><a xlink:title="prototype">
<polygon fill="#fff8dc" stroke="#000000" points="181,-522 71,-522 71,-452 181,-452 181,-522"/>
<text text-anchor="start" x="79" y="-509.8" font-family="Courier,monospace" font-size="9.00" fill="#000000"> </text>
<text text-anchor="start" x="85" y="-509.2" font-family="Courier,monospace" font-size="11.00" fill="#000000">ellipse(_,_)</text>
<text text-anchor="start" x="167" y="-509.8" font-family="Courier,monospace" font-size="9.00" fill="#000000"> </text>
<text text-anchor="start" x="79" y="-498.8" font-family="Courier,monospace" font-size="9.00" fill="#000000"> </text>
<text text-anchor="start" x="105.5" y="-499.4" font-family="Courier,monospace" font-size="7.00" fill="#000000">prototype</text>
<text text-anchor="start" x="167" y="-498.8" font-family="Courier,monospace" font-size="9.00" fill="#000000"> </text>
<text text-anchor="start" x="79" y="-488.8" font-family="Courier,monospace" font-size="9.00" fill="#000000"> </text>
<text text-anchor="start" x="79" y="-478.8" font-family="Courier,monospace" font-size="9.00" fill="#000000"> </text>
<text text-anchor="start" x="115" y="-478.8" font-family="Courier,monospace" font-size="9.00" fill="#000000">rx/1</text>
<text text-anchor="start" x="167" y="-478.8" font-family="Courier,monospace" font-size="9.00" fill="#000000"> </text>
<text text-anchor="start" x="79" y="-468.8" font-family="Courier,monospace" font-size="9.00" fill="#000000"> </text>
<text text-anchor="start" x="115" y="-468.8" font-family="Courier,monospace" font-size="9.00" fill="#000000">ry/1</text>
<text text-anchor="start" x="167" y="-468.8" font-family="Courier,monospace" font-size="9.00" fill="#000000"> </text>
<text text-anchor="start" x="79" y="-458.8" font-family="Courier,monospace" font-size="9.00" fill="#000000"> </text>
<text text-anchor="start" x="110" y="-458.8" font-family="Courier,monospace" font-size="9.00" fill="#000000">area/1</text>
<text text-anchor="start" x="167" y="-458.8" font-family="Courier,monospace" font-size="9.00" fill="#000000"> </text>
</a>
</g>
</g>
<!-- circle(_) -->
<g id="node5" class="node">
<title>circle(_)</title>
<g id="a_node5"><a xlink:title="prototype">
<polygon fill="#fff8dc" stroke="#000000" points="170.5,-148 81.5,-148 81.5,-112 170.5,-112 170.5,-148"/>
<text text-anchor="start" x="90" y="-132.8" font-family="Courier,monospace" font-size="9.00" fill="#000000"> </text>
<text text-anchor="start" x="96" y="-132.2" font-family="Courier,monospace" font-size="11.00" fill="#000000">circle(_)</text>
<text text-anchor="start" x="157" y="-132.8" font-family="Courier,monospace" font-size="9.00" fill="#000000"> </text>
<text text-anchor="start" x="90" y="-121.8" font-family="Courier,monospace" font-size="9.00" fill="#000000"> </text>
<text text-anchor="start" x="106" y="-122.4" font-family="Courier,monospace" font-size="7.00" fill="#000000">prototype</text>
<text text-anchor="start" x="157" y="-121.8" font-family="Courier,monospace" font-size="9.00" fill="#000000"> </text>
</a>
</g>
</g>
<!-- circle(_)&#45;&gt;ellipse(_,_) -->
<g id="edge3" class="edge">
<title>circle(_)&#45;&gt;ellipse(_,_)</title>
<path fill="none" stroke="#000000" d="M126,-148.2285C126,-166.6953 126,-196.0833 126,-221.5 126,-221.5 126,-221.5 126,-378.5 126,-399.2573 126,-422.2483 126,-441.704"/>
<polygon fill="#000000" stroke="#000000" points="126,-451.8178 121.5001,-441.8178 126,-446.8178 126.0001,-441.8178 126.0001,-441.8178 126.0001,-441.8178 126,-446.8178 130.5001,-441.8179 126,-451.8178 126,-451.8178"/>
<g id="a_edge3&#45;label"><a xlink:title="extends">
<text text-anchor="middle" x="144.5" y="-297.8" font-family="Courier,monospace" font-size="9.00" fill="#000000">extends</text>
</a>
</g>
</g>
</g>
</svg>
