<?xml version="1.0" encoding="UTF-8" standalone="no"?>
<!DOCTYPE svg PUBLIC "-//W3C//DTD SVG 1.1//EN"
 "http://www.w3.org/Graphics/SVG/1.1/DTD/svg11.dtd">
<!-- Generated by graphviz version 2.40.1 (20161225.0304)
 -->
<!-- Title: demo Pages: 1 -->
<svg width="529pt" height="473pt"
 viewBox="72.00 72.00 457.00 401.00" xmlns="http://www.w3.org/2000/svg" xmlns:xlink="http://www.w3.org/1999/xlink">
<g id="graph0" class="graph" transform="scale(1 1) rotate(0) translate(76 397)">
<title>demo</title>
<polygon fill="#ffffff" stroke="transparent" points="-4,4 -4,-325 381,-325 381,4 -4,4"/>
<text text-anchor="start" x="8" y="-18" font-family="Courier,monospace" font-size="10.00" fill="#696969">File load diagram for directory /home/runner/work/demo/demo/</text>
<text text-anchor="start" x="8" y="-7" font-family="Courier,monospace" font-size="10.00" fill="#696969">Generated on 2019/10/23, 22:40</text>
<g id="clust1" class="cluster">
<title>cluster_directory_demo</title>
<g id="a_clust1"><a xlink:title="/home/runner/work/demo/demo/">
<path fill="#f5f5f5" stroke="#696969" d="M104,-38C104,-38 273,-38 273,-38 279,-38 285,-44 285,-50 285,-50 285,-301 285,-301 285,-307 279,-313 273,-313 273,-313 104,-313 104,-313 98,-313 92,-307 92,-301 92,-301 92,-50 92,-50 92,-44 98,-38 104,-38"/>
<text text-anchor="start" x="104.5" y="-296.5" font-family="Courier,monospace" font-size="10.00" fill="#696969">/home/runner/work/demo/demo/</text>
</a>
</g>
</g>
<!-- /home/runner/work/demo/demo/loader.lgt -->
<g id="node1" class="node">
<title>/home/runner/work/demo/demo/loader.lgt</title>
<g id="a_node1"><a xlink:title="/home/runner/work/demo/demo/loader.lgt">
<polygon fill="#afeeee" stroke="#000000" points="236,-276 140,-276 140,-240 236,-240 236,-276"/>
<text text-anchor="start" x="148" y="-260.8" font-family="Courier,monospace" font-size="9.00" fill="#000000"> </text>
<text text-anchor="start" x="154" y="-260.2" font-family="Courier,monospace" font-size="11.00" fill="#000000">loader.lgt</text>
<text text-anchor="start" x="222" y="-260.8" font-family="Courier,monospace" font-size="9.00" fill="#000000"> </text>
<text text-anchor="start" x="148" y="-249.8" font-family="Courier,monospace" font-size="9.00" fill="#000000"> </text>
<text text-anchor="start" x="178.5" y="-250.4" font-family="Courier,monospace" font-size="7.00" fill="#000000">file</text>
<text text-anchor="start" x="222" y="-249.8" font-family="Courier,monospace" font-size="9.00" fill="#000000"> </text>
</a>
</g>
</g>
<!-- /home/runner/work/demo/demo/aliases.lgt -->
<g id="node2" class="node">
<title>/home/runner/work/demo/demo/aliases.lgt</title>
<g id="a_node2"><a xlink:title="/home/runner/work/demo/demo/aliases.lgt">
<polygon fill="#afeeee" stroke="#000000" points="239.5,-84 136.5,-84 136.5,-48 239.5,-48 239.5,-84"/>
<text text-anchor="start" x="145" y="-68.8" font-family="Courier,monospace" font-size="9.00" fill="#000000"> </text>
<text text-anchor="start" x="151" y="-68.2" font-family="Courier,monospace" font-size="11.00" fill="#000000">aliases.lgt</text>
<text text-anchor="start" x="226" y="-68.8" font-family="Courier,monospace" font-size="9.00" fill="#000000"> </text>
<text text-anchor="start" x="145" y="-57.8" font-family="Courier,monospace" font-size="9.00" fill="#000000"> </text>
<text text-anchor="start" x="179" y="-58.4" font-family="Courier,monospace" font-size="7.00" fill="#000000">file</text>
<text text-anchor="start" x="226" y="-57.8" font-family="Courier,monospace" font-size="9.00" fill="#000000"> </text>
</a>
</g>
</g>
<!-- /home/runner/work/demo/demo/loader.lgt&#45;&gt;/home/runner/work/demo/demo/aliases.lgt -->
<g id="edge1" class="edge">
<title>/home/runner/work/demo/demo/loader.lgt&#45;&gt;/home/runner/work/demo/demo/aliases.lgt</title>
<path fill="none" stroke="#000000" d="M188,-239.9371C188,-206.4168 188,-134.3617 188,-94.3098"/>
<polygon fill="#000000" stroke="#000000" points="191.5001,-94.1547 188,-84.1548 184.5001,-94.1548 191.5001,-94.1547"/>
<g id="a_edge1&#45;label"><a xlink:title="loads">
<text text-anchor="middle" x="201.5" y="-159.8" font-family="Courier,monospace" font-size="9.00" fill="#000000">loads</text>
</a>
</g>
</g>
</g>
</svg>
