<?xml version="1.0" encoding="UTF-8" standalone="no"?>
<!DOCTYPE svg PUBLIC "-//W3C//DTD SVG 1.1//EN"
 "http://www.w3.org/Graphics/SVG/1.1/DTD/svg11.dtd">
<!-- Generated by graphviz version 2.40.1 (20161225.0304)
 -->
<!-- Title: demo Pages: 1 -->
<svg width="582pt" height="737pt"
 viewBox="72.00 72.00 510.00 665.00" xmlns="http://www.w3.org/2000/svg" xmlns:xlink="http://www.w3.org/1999/xlink">
<g id="graph0" class="graph" transform="scale(1 1) rotate(0) translate(76 661)">
<title>demo</title>
<polygon fill="#ffffff" stroke="transparent" points="-4,4 -4,-589 434,-589 434,4 -4,4"/>
<text text-anchor="start" x="8" y="-18" font-family="Courier,monospace" font-size="10.00" fill="#696969">Inheritance diagram for directory /home/runner/work/demo/demo/</text>
<text text-anchor="start" x="8" y="-7" font-family="Courier,monospace" font-size="10.00" fill="#696969">Generated on 2019/10/23, 09:31</text>
<g id="clust1" class="cluster">
<title>cluster_directory_demo</title>
<g id="a_clust1"><a xlink:title="/home/runner/work/demo/demo/">
<path fill="#f5f5f5" stroke="#696969" d="M20,-38C20,-38 410,-38 410,-38 416,-38 422,-44 422,-50 422,-50 422,-565 422,-565 422,-571 416,-577 410,-577 410,-577 20,-577 20,-577 14,-577 8,-571 8,-565 8,-565 8,-50 8,-50 8,-44 14,-38 20,-38"/>
<text text-anchor="start" x="20.5" y="-48.5" font-family="Courier,monospace" font-size="10.00" fill="#696969">/home/runner/work/demo/demo/</text>
</a>
</g>
</g>
<g id="clust3" class="cluster">
<title>cluster_file_/home/runner/work/demo/demo/aliases.lgt</title>
<g id="a_clust3"><a xlink:title="/home/runner/work/demo/demo/aliases.lgt">
<path fill="#fffafa" stroke="#696969" d="M30,-75C30,-75 316,-75 316,-75 322,-75 328,-81 328,-87 328,-87 328,-555 328,-555 328,-561 322,-567 316,-567 316,-567 30,-567 30,-567 24,-567 18,-561 18,-555 18,-555 18,-87 18,-87 18,-81 24,-75 30,-75"/>
<text text-anchor="start" x="30.5" y="-85.5" font-family="Courier,monospace" font-size="10.00" fill="#696969">aliases.lgt</text>
</a>
</g>
</g>
<!-- rectangle(_,_) -->
<g id="node1" class="node">
<title>rectangle(_,_)</title>
<g id="a_node1"><a xlink:title="prototype">
<polygon fill="#fff8dc" stroke="#000000" points="279.5,-557 156.5,-557 156.5,-487 279.5,-487 279.5,-557"/>
<text text-anchor="start" x="165" y="-544.8" font-family="Courier,monospace" font-size="9.00" fill="#000000"> </text>
<text text-anchor="start" x="171" y="-544.2" font-family="Courier,monospace" font-size="11.00" fill="#000000">rectangle(_,_)</text>
<text text-anchor="start" x="266" y="-544.8" font-family="Courier,monospace" font-size="9.00" fill="#000000"> </text>
<text text-anchor="start" x="165" y="-533.8" font-family="Courier,monospace" font-size="9.00" fill="#000000"> </text>
<text text-anchor="start" x="198" y="-534.4" font-family="Courier,monospace" font-size="7.00" fill="#000000">prototype</text>
<text text-anchor="start" x="266" y="-533.8" font-family="Courier,monospace" font-size="9.00" fill="#000000"> </text>
<text text-anchor="start" x="165" y="-523.8" font-family="Courier,monospace" font-size="9.00" fill="#000000"> </text>
<text text-anchor="start" x="165" y="-513.8" font-family="Courier,monospace" font-size="9.00" fill="#000000"> </text>
<text text-anchor="start" x="200" y="-513.8" font-family="Courier,monospace" font-size="9.00" fill="#000000">width/1</text>
<text text-anchor="start" x="266" y="-513.8" font-family="Courier,monospace" font-size="9.00" fill="#000000"> </text>
<text text-anchor="start" x="165" y="-503.8" font-family="Courier,monospace" font-size="9.00" fill="#000000"> </text>
<text text-anchor="start" x="197" y="-503.8" font-family="Courier,monospace" font-size="9.00" fill="#000000">height/1</text>
<text text-anchor="start" x="266" y="-503.8" font-family="Courier,monospace" font-size="9.00" fill="#000000"> </text>
<text text-anchor="start" x="165" y="-493.8" font-family="Courier,monospace" font-size="9.00" fill="#000000"> </text>
<text text-anchor="start" x="202.5" y="-493.8" font-family="Courier,monospace" font-size="9.00" fill="#000000">area/1</text>
<text text-anchor="start" x="266" y="-493.8" font-family="Courier,monospace" font-size="9.00" fill="#000000"> </text>
</a>
</g>
</g>
<!-- square(_) -->
<g id="node2" class="node">
<title>square(_)</title>
<g id="a_node2"><a xlink:title="prototype">
<polygon fill="#fff8dc" stroke="#000000" points="223.5,-148 134.5,-148 134.5,-112 223.5,-112 223.5,-148"/>
<text text-anchor="start" x="143" y="-132.8" font-family="Courier,monospace" font-size="9.00" fill="#000000"> </text>
<text text-anchor="start" x="149" y="-132.2" font-family="Courier,monospace" font-size="11.00" fill="#000000">square(_)</text>
<text text-anchor="start" x="210" y="-132.8" font-family="Courier,monospace" font-size="9.00" fill="#000000"> </text>
<text text-anchor="start" x="143" y="-121.8" font-family="Courier,monospace" font-size="9.00" fill="#000000"> </text>
<text text-anchor="start" x="159" y="-122.4" font-family="Courier,monospace" font-size="7.00" fill="#000000">prototype</text>
<text text-anchor="start" x="210" y="-121.8" font-family="Courier,monospace" font-size="9.00" fill="#000000"> </text>
</a>
</g>
</g>
<!-- square(_)&#45;&gt;rectangle(_,_) -->
<g id="edge1" class="edge">
<title>square(_)&#45;&gt;rectangle(_,_)</title>
<path fill="none" stroke="#000000" d="M184.8039,-148.192C190.3914,-167.3439 198,-198.4763 198,-226 198,-226 198,-226 198,-413.5 198,-434.5411 201.6827,-457.5029 205.8875,-476.8626"/>
<polygon fill="#000000" stroke="#000000" points="208.1172,-486.6289 201.5042,-477.8814 207.0043,-481.7544 205.8913,-476.8798 205.8913,-476.8798 205.8913,-476.8798 207.0043,-481.7544 210.2784,-475.8782 208.1172,-486.6289 208.1172,-486.6289"/>
<g id="a_edge1&#45;label"><a xlink:title="extends">
<text text-anchor="middle" x="216.5" y="-319.8" font-family="Courier,monospace" font-size="9.00" fill="#000000">extends</text>
</a>
</g>
</g>
<!-- square1 -->
<g id="node3" class="node">
<title>square1</title>
<g id="a_node3"><a xlink:title="prototype">
<polygon fill="#fff8dc" stroke="#000000" points="318,-148 242,-148 242,-112 318,-112 318,-148"/>
<text text-anchor="start" x="250" y="-132.8" font-family="Courier,monospace" font-size="9.00" fill="#000000"> </text>
<text text-anchor="start" x="256" y="-132.2" font-family="Courier,monospace" font-size="11.00" fill="#000000">square1</text>
<text text-anchor="start" x="304" y="-132.8" font-family="Courier,monospace" font-size="9.00" fill="#000000"> </text>
<text text-anchor="start" x="250" y="-121.8" font-family="Courier,monospace" font-size="9.00" fill="#000000"> </text>
<text text-anchor="start" x="259.5" y="-122.4" font-family="Courier,monospace" font-size="7.00" fill="#000000">prototype</text>
<text text-anchor="start" x="304" y="-121.8" font-family="Courier,monospace" font-size="9.00" fill="#000000"> </text>
</a>
</g>
</g>
<!-- square(1) -->
<g id="node6" class="node">
<title>square(1)</title>
<ellipse fill="#ffffff" stroke="#000000" cx="375" cy="-322" rx="36.9009" ry="18"/>
<text text-anchor="middle" x="375" y="-319.8" font-family="Courier,monospace" font-size="9.00" fill="#000000">square(1)</text>
</g>
<!-- square1&#45;&gt;square(1) -->
<g id="edge2" class="edge">
<title>square1&#45;&gt;square(1)</title>
<path fill="none" stroke="#000000" d="M288.9374,-148.0629C305.7142,-181.9698 342,-255.3052 361.6718,-295.0629"/>
<polygon fill="#000000" stroke="#000000" points="366.2931,-304.4029 357.825,-297.4357 364.0757,-299.9215 361.8583,-295.44 361.8583,-295.44 361.8583,-295.44 364.0757,-299.9215 365.8916,-293.4444 366.2931,-304.4029 366.2931,-304.4029"/>
<g id="a_edge2&#45;label"><a xlink:title="extends">
<text text-anchor="middle" x="347.5" y="-223.8" font-family="Courier,monospace" font-size="9.00" fill="#000000">extends</text>
</a>
</g>
</g>
<!-- ellipse(_,_) -->
<g id="node4" class="node">
<title>ellipse(_,_)</title>
<g id="a_node4"><a xlink:title="prototype">
<polygon fill="#fff8dc" stroke="#000000" points="138,-557 28,-557 28,-487 138,-487 138,-557"/>
<text text-anchor="start" x="36" y="-544.8" font-family="Courier,monospace" font-size="9.00" fill="#000000"> </text>
<text text-anchor="start" x="42" y="-544.2" font-family="Courier,monospace" font-size="11.00" fill="#000000">ellipse(_,_)</text>
<text text-anchor="start" x="124" y="-544.8" font-family="Courier,monospace" font-size="9.00" fill="#000000"> </text>
<text text-anchor="start" x="36" y="-533.8" font-family="Courier,monospace" font-size="9.00" fill="#000000"> </text>
<text text-anchor="start" x="62.5" y="-534.4" font-family="Courier,monospace" font-size="7.00" fill="#000000">prototype</text>
<text text-anchor="start" x="124" y="-533.8" font-family="Courier,monospace" font-size="9.00" fill="#000000"> </text>
<text text-anchor="start" x="36" y="-523.8" font-family="Courier,monospace" font-size="9.00" fill="#000000"> </text>
<text text-anchor="start" x="36" y="-513.8" font-family="Courier,monospace" font-size="9.00" fill="#000000"> </text>
<text text-anchor="start" x="72" y="-513.8" font-family="Courier,monospace" font-size="9.00" fill="#000000">rx/1</text>
<text text-anchor="start" x="124" y="-513.8" font-family="Courier,monospace" font-size="9.00" fill="#000000"> </text>
<text text-anchor="start" x="36" y="-503.8" font-family="Courier,monospace" font-size="9.00" fill="#000000"> </text>
<text text-anchor="start" x="72" y="-503.8" font-family="Courier,monospace" font-size="9.00" fill="#000000">ry/1</text>
<text text-anchor="start" x="124" y="-503.8" font-family="Courier,monospace" font-size="9.00" fill="#000000"> </text>
<text text-anchor="start" x="36" y="-493.8" font-family="Courier,monospace" font-size="9.00" fill="#000000"> </text>
<text text-anchor="start" x="67" y="-493.8" font-family="Courier,monospace" font-size="9.00" fill="#000000">area/1</text>
<text text-anchor="start" x="124" y="-493.8" font-family="Courier,monospace" font-size="9.00" fill="#000000"> </text>
</a>
</g>
</g>
<!-- circle(_) -->
<g id="node5" class="node">
<title>circle(_)</title>
<g id="a_node5"><a xlink:title="prototype">
<polygon fill="#fff8dc" stroke="#000000" points="116.5,-148 27.5,-148 27.5,-112 116.5,-112 116.5,-148"/>
<text text-anchor="start" x="36" y="-132.8" font-family="Courier,monospace" font-size="9.00" fill="#000000"> </text>
<text text-anchor="start" x="42" y="-132.2" font-family="Courier,monospace" font-size="11.00" fill="#000000">circle(_)</text>
<text text-anchor="start" x="103" y="-132.8" font-family="Courier,monospace" font-size="9.00" fill="#000000"> </text>
<text text-anchor="start" x="36" y="-121.8" font-family="Courier,monospace" font-size="9.00" fill="#000000"> </text>
<text text-anchor="start" x="52" y="-122.4" font-family="Courier,monospace" font-size="7.00" fill="#000000">prototype</text>
<text text-anchor="start" x="103" y="-121.8" font-family="Courier,monospace" font-size="9.00" fill="#000000"> </text>
</a>
</g>
</g>
<!-- circle(_)&#45;&gt;ellipse(_,_) -->
<g id="edge3" class="edge">
<title>circle(_)&#45;&gt;ellipse(_,_)</title>
<path fill="none" stroke="#000000" d="M73.5002,-148.0328C74.9729,-167.3155 77,-198.7965 77,-226 77,-226 77,-226 77,-413.5 77,-434.289 78.1117,-457.2844 79.3781,-476.7348"/>
<polygon fill="#000000" stroke="#000000" points="80.0703,-486.845 74.8977,-477.1758 79.7287,-481.8567 79.3871,-476.8684 79.3871,-476.8684 79.3871,-476.8684 79.7287,-481.8567 83.8766,-476.5609 80.0703,-486.845 80.0703,-486.845"/>
<g id="a_edge3&#45;label"><a xlink:title="extends">
<text text-anchor="middle" x="95.5" y="-319.8" font-family="Courier,monospace" font-size="9.00" fill="#000000">extends</text>
</a>
</g>
</g>
</g>
</svg>
